<svg width="346" height="288" viewBox="0 0 346 288" fill="none" xmlns="http://www.w3.org/2000/svg">
<path d="M78.4318 210.476H63.743C28.87 210.476 6.10008 186.453 6.10008 152.116C5.87874 137.407 11.4154 123.193 21.5283 112.51C31.6412 101.826 45.5293 95.5186 60.2285 94.933C58.2617 87.7837 57.2834 80.3987 57.321 72.9839C57.321 36.2078 85.327 5.2403 125.49 5.2403C155.084 5.2403 177.944 22.0741 188.019 45.4748C197.159 40.1299 207.574 37.3584 218.162 37.4542C252.242 37.4542 277.055 63.1035 275.774 95.3218C278.354 94.9986 280.951 94.8348 283.551 94.8314C291.131 94.6806 298.665 96.0566 305.703 98.8776C312.741 101.698 319.139 105.907 324.517 111.251C329.895 116.596 334.143 122.969 337.007 129.989C339.871 137.009 341.293 144.534 341.189 152.116C341.189 186.678 317.126 210.476 283.549 210.476H78.4318Z" fill="white"/>
<path d="M194.562 233.038C199.572 233.038 206.994 233.092 212.951 233.11C213.267 233.109 213.576 233.2 213.84 233.372C214.105 233.544 214.314 233.788 214.443 234.076C214.571 234.364 214.613 234.683 214.564 234.995C214.515 235.306 214.376 235.597 214.165 235.831C202.028 249.285 186.259 269.013 173.695 282.592C160.903 269.039 145.685 249.46 133.165 235.745C132.953 235.511 132.813 235.221 132.762 234.91C132.711 234.598 132.752 234.278 132.879 233.99C133.007 233.701 133.215 233.455 133.48 233.282C133.744 233.11 134.053 233.017 134.368 233.017C140.371 232.993 147.867 232.9 152.822 232.904C152.809 215.39 152.857 178.592 152.857 163.901C165.046 163.901 181.617 163.847 194.48 163.847C194.48 168.911 194.564 231.712 194.562 233.038Z" fill="#7ABEE6"/>
<path d="M130.638 205.292H76.4186C63.4168 205.292 50.3416 205.767 38.4004 199.824C32.2694 196.747 26.8682 192.393 22.5603 187.054C18.2524 181.716 15.1375 175.517 13.4251 168.874C11.3442 161.629 10.7159 154.045 11.5763 146.556C12.4368 139.068 14.7689 131.823 18.4387 125.24C22.7963 117.935 28.8902 111.82 36.1793 107.436C43.4684 103.053 51.7271 100.537 60.222 100.113C61.0158 100.1 61.7963 99.9063 62.5047 99.5479C63.2131 99.1895 63.8311 98.6751 64.3122 98.0435C64.7933 97.4119 65.1249 96.6795 65.2822 95.9013C65.4396 95.1231 65.4185 94.3194 65.2205 93.5505C58.3859 68.5427 64.7086 41.2474 85.0051 24.3574C104.375 8.23854 134.04 5.97904 156.073 17.8252C168.374 24.5317 178.05 35.1966 183.531 48.0907C184.234 49.2678 185.371 50.1221 186.697 50.4699C188.024 50.8177 189.434 50.6312 190.624 49.9506C216.922 34.6461 253.944 44.1009 266.507 72.6319C269.549 79.7911 270.941 87.543 270.579 95.3132C270.584 96.6866 271.132 98.0022 272.103 98.9734C273.074 99.9445 274.39 100.492 275.764 100.497C292.453 98.5534 309.291 103.148 321.241 115.303C326.538 120.875 330.579 127.518 333.092 134.784C335.604 142.051 336.53 149.771 335.806 157.425C334.726 172.004 327.982 186.3 316.195 195.048C310.137 199.486 303.191 202.561 295.833 204.06C289.501 205.136 283.073 205.543 276.656 205.274H216.645C209.975 205.274 209.962 215.643 216.645 215.643H274.64C281.955 215.893 289.277 215.497 296.522 214.461C304.861 213.014 312.803 209.834 319.837 205.127C349.951 184.671 354.669 139.872 332.205 112.039C318.724 95.3348 296.831 87.6728 275.768 90.1202L280.952 95.3045C281.28 87.1456 279.959 79.0043 277.067 71.3679C274.176 63.7315 269.773 56.7571 264.123 50.8621C252.204 39.0308 236.116 32.3527 219.322 32.2656C207.43 32.023 195.698 35.0363 185.395 40.9796L192.489 42.8394C180.392 15.1596 151.848 -1.25521 121.95 0.120788C108.064 0.632677 94.6166 5.11986 83.2058 13.0492C71.7949 20.9786 62.9001 32.0169 57.578 44.8527C51.1877 61.2865 50.3591 79.3616 55.2191 96.3111L60.2198 89.7487C51.3658 90.1405 42.6965 92.4119 34.7879 96.4118C26.8792 100.412 19.9122 106.049 14.3496 112.948C8.96597 120.011 5.07026 128.092 2.89791 136.702C0.725563 145.313 0.321692 154.275 1.71071 163.046C2.70272 171.075 5.29144 178.824 9.32439 185.837C13.3573 192.85 18.753 198.985 25.1934 203.881C38.111 213.483 53.4911 215.66 69.1541 215.66H130.631C137.304 215.66 137.315 205.292 130.631 205.292H130.638Z" fill="#211715"/>
<path d="M194.562 238.223C197.509 238.223 200.456 238.233 203.404 238.253L208.039 238.274H210.32H211.213C212.859 238.443 212.473 237.993 210.055 236.924L209.346 234.306C209.268 233.583 210.705 232.179 209.465 233.304C209.001 233.774 208.562 234.268 208.149 234.784C207.337 235.703 206.529 236.623 205.724 237.547C204.127 239.374 202.543 241.212 200.971 243.059C197.44 247.185 193.94 251.339 190.432 255.486C183.747 263.403 177.05 271.32 170.03 278.926H177.361C170.282 271.398 163.636 263.474 156.996 255.562C153.602 251.52 150.217 247.47 146.795 243.452C145.16 241.531 143.514 239.62 141.857 237.719C141.106 236.855 140.351 235.998 139.594 235.149C139.131 234.629 138.668 234.111 138.202 233.594L137.652 232.982C137.047 232.241 137.155 232.657 137.976 234.233L137.267 236.851C134.977 237.835 134.448 238.282 135.679 238.195H137.021L138.855 238.182L143.987 238.143C146.932 238.119 149.876 238.097 152.822 238.097C154.191 238.079 155.499 237.527 156.468 236.559C157.436 235.59 157.988 234.282 158.007 232.913C157.989 209.912 158.001 186.911 158.041 163.91L152.857 169.094C166.731 169.094 180.606 169.04 194.48 169.04L189.296 163.856C189.296 184.075 189.32 204.294 189.369 224.515C189.369 227.36 189.369 230.204 189.369 233.047C189.369 239.72 199.738 239.73 199.738 233.047C199.738 213.469 199.714 193.891 199.667 174.313C199.667 170.827 199.663 167.341 199.656 163.856C199.637 162.487 199.085 161.179 198.117 160.211C197.149 159.242 195.841 158.69 194.472 158.672C180.597 158.672 166.723 158.726 152.848 158.726C151.479 158.745 150.172 159.298 149.204 160.266C148.236 161.234 147.683 162.541 147.664 163.91C147.664 186.911 147.652 209.912 147.629 232.913L152.814 227.729C148.925 227.729 145.057 227.766 141.179 227.796C137.263 227.826 132.254 226.91 129.324 230.105C128.597 230.91 128.072 231.877 127.795 232.926C127.518 233.975 127.495 235.075 127.73 236.134C128.399 238.105 129.575 239.866 131.139 241.24C133.655 244.049 136.124 246.893 138.572 249.758C149.003 261.965 159.015 274.562 170.021 286.264C171 287.224 172.316 287.762 173.687 287.762C175.058 287.762 176.374 287.224 177.353 286.264C188.153 274.554 198.213 262.174 208.573 250.075C210.94 247.31 213.329 244.563 215.738 241.834C217.325 240.417 218.594 238.678 219.46 236.734C219.794 235.608 219.832 234.415 219.573 233.269C219.314 232.124 218.764 231.064 217.978 230.191C215.142 227.089 210.435 227.923 206.642 227.906C202.609 227.889 198.577 227.874 194.545 227.861C187.892 227.845 187.881 238.214 194.562 238.223Z" fill="#211715"/>
</svg>
