<svg width="801" height="510" viewBox="0 0 801 510" fill="none" xmlns="http://www.w3.org/2000/svg">
<g clip-path="url(#clip0_103_223)">
<path d="M86.4089 275.75C86.3769 198.48 86.3369 96.0611 86.3129 30.6834C86.3115 27.6422 86.9094 24.6304 88.0725 21.8203C89.2357 19.0102 90.9411 16.4569 93.0915 14.3062C95.2419 12.1556 97.7951 10.4498 100.605 9.28633C103.415 8.12288 106.427 7.52458 109.468 7.52563C209.234 7.49628 498.319 7.39756 616.611 7.35486C619.654 7.35276 622.667 7.95038 625.479 9.11356C628.291 10.2767 630.846 11.9827 632.998 14.1339C635.15 16.285 636.857 18.8393 638.022 21.6506C639.186 24.4619 639.785 27.4751 639.784 30.518C639.784 118.221 639.822 260.669 639.856 351.419C658.174 377.178 697.483 431.344 716.694 464.163C718.601 467.426 719.602 471.14 719.592 474.919C719.592 478.268 719.523 482.321 719.523 486.507C719.517 490.768 717.821 494.853 714.806 497.864C711.791 500.875 707.705 502.567 703.444 502.568H20.0653C18.3047 502.568 16.5612 502.222 14.9343 501.549C13.3075 500.876 11.8292 499.889 10.5838 498.644C9.33849 497.4 8.35053 495.922 7.67636 494.295C7.00219 492.669 6.65501 490.926 6.65466 489.165C6.65466 468.483 6.57728 495.235 6.57728 474.946C6.56988 471.152 7.5738 467.424 9.48568 464.147C28.9133 430.97 68.3768 375.084 86.4383 349.727C86.4303 331.017 86.4196 305.215 86.4089 275.75Z" fill="white"/>
<path d="M601.847 367.13C604.105 367.129 606.329 367.675 608.33 368.721C610.331 369.766 612.05 371.28 613.339 373.133C622.054 385.578 631.427 399.338 639.755 412.749C640.394 413.77 640.747 414.943 640.779 416.146C640.812 417.35 640.521 418.54 639.939 419.594C639.356 420.647 638.502 421.525 637.465 422.138C636.428 422.75 635.246 423.073 634.042 423.075H92.135C90.9351 423.077 89.7564 422.759 88.7207 422.153C87.685 421.547 86.8298 420.676 86.2435 419.629C85.6571 418.582 85.3608 417.398 85.3852 416.198C85.4096 414.998 85.7538 413.827 86.3822 412.805C94.7312 399.359 104.131 385.562 112.867 373.077C114.158 371.233 115.875 369.727 117.873 368.69C119.871 367.652 122.09 367.112 124.341 367.116C224.334 367.116 501.867 367.116 601.86 367.116" fill="#CFCFCF"/>
<path d="M607.811 376.378C613.289 384.209 618.705 392.083 623.98 400.053C626.544 403.928 629.071 407.827 631.564 411.751C632.26 412.85 634.069 415.092 634.371 415.881C634.579 416.415 634.411 416.682 633.994 416.775C633.824 416.818 632.393 416.685 631.926 416.685H95.6064C94.5151 416.685 93.1623 416.698 92.1723 416.709C92.1323 416.709 91.7107 415.972 91.7935 416.709C91.6734 415.66 93.1863 414.04 93.9281 412.848C99.1445 404.576 104.566 396.422 110.087 388.345C112.656 384.586 115.246 380.842 117.857 377.112C118.449 376.263 119.423 374.048 120.354 373.589C121.211 373.421 122.091 373.404 122.953 373.539H215.032H381.713H571.541C579.783 373.539 579.797 360.731 571.541 360.731H245.429H171.462H128.052C122.15 360.731 115.613 359.971 111.13 364.704C108.245 368.165 105.622 371.836 103.283 375.687C100.407 379.839 97.5604 384.007 94.7445 388.193C92.1243 392.089 89.5361 396.006 86.9799 399.947C84.4424 403.866 80.8136 408.103 79.5088 412.653C78.9743 414.616 78.8959 416.675 79.2796 418.673C79.6632 420.672 80.4988 422.555 81.7224 424.181C82.9461 425.807 84.5253 427.131 86.3393 428.052C88.1532 428.974 90.1539 429.468 92.1884 429.497C96.1454 429.647 100.137 429.497 104.097 429.497H628.001C629.728 429.497 631.454 429.519 633.181 429.497C634.942 429.576 636.702 429.306 638.36 428.704C640.018 428.102 641.54 427.179 642.841 425.988C644.142 424.797 645.195 423.362 645.941 421.763C646.686 420.165 647.109 418.436 647.186 416.674C647.232 412.271 644.892 408.875 642.623 405.291C640.133 401.365 637.605 397.466 635.04 393.593C629.765 385.623 624.349 377.749 618.868 369.918C617.981 368.485 616.577 367.448 614.947 367.021C613.317 366.593 611.584 366.808 610.108 367.621C608.652 368.488 607.596 369.893 607.166 371.532C606.736 373.171 606.968 374.913 607.811 376.383V376.378Z" fill="#211715"/>
<path d="M111.109 38.0426C111.129 83.7587 111.148 129.483 111.168 175.215L111.224 309.975C111.224 319.277 111.228 328.578 111.237 337.877C111.261 339.568 111.944 341.183 113.139 342.379C114.335 343.575 115.95 344.257 117.641 344.281L190.607 344.255L297.604 344.217L416.216 344.177L525.324 344.14L602.327 344.116H608.662C610.353 344.091 611.967 343.408 613.163 342.213C614.358 341.017 615.041 339.403 615.066 337.712C615.05 297.999 615.033 258.289 615.015 218.58C614.995 177.254 614.978 135.928 614.962 94.6016L614.938 37.8851C614.913 36.1943 614.231 34.5794 613.035 33.3836C611.839 32.1879 610.225 31.5055 608.534 31.4813L566.319 31.4973L462.473 31.5294L331.195 31.572L206.683 31.6121L123.434 31.6361H117.513C109.273 31.6361 109.257 44.4437 117.513 44.4437L193.868 44.4464L315.273 44.4064L447.542 44.3637L556.471 44.329L591.492 44.3156C596.881 44.3156 602.41 44.6732 607.792 44.3156C608.035 44.2996 608.286 44.3156 608.528 44.3156L602.125 37.9118L602.173 146.953C602.189 189.222 602.206 231.49 602.226 273.759C602.226 295.087 602.235 316.414 602.253 337.739L608.656 331.335L536.843 331.356L430.438 331.391L311.861 331.431L202.227 331.471L124.143 331.498H117.641L124.045 337.901C124.016 311.601 124.005 285.301 124.01 259.001L123.946 107.951C123.935 84.6481 123.925 61.3454 123.917 38.0426C123.914 29.8083 111.106 29.795 111.109 38.0426Z" fill="#211715"/>
<path d="M92.8127 275.75L92.7567 134.345C92.7567 111.621 92.7478 88.896 92.73 66.1713C92.73 56.1867 92.73 46.2012 92.73 36.2148C92.3146 32.0386 92.7967 27.8219 94.1442 23.8474C95.8473 20.0818 98.8636 17.0654 102.629 15.3623C107.952 12.9609 114.735 13.9295 120.448 13.9268H138.304H180.705L284.586 13.8921L401.189 13.8521L513.64 13.7961L605.367 13.7614C612.037 13.7614 619.508 12.6754 625.467 16.2802C628.791 18.3136 631.287 21.46 632.511 25.1602C633.452 29.2506 633.746 33.4635 633.381 37.645C633.381 57.5484 633.381 77.4509 633.381 97.3526C633.381 142.802 633.39 188.251 633.41 233.701C633.41 255.842 633.417 277.983 633.431 300.124C633.431 310.303 633.431 320.482 633.431 330.662C633.431 335.435 633.431 340.209 633.431 344.983C633.431 347.118 633.287 349.298 633.431 351.419C633.863 353.919 635.018 356.238 636.753 358.089C659.82 390.418 683.306 422.573 704.38 456.255C706.68 459.932 709.044 463.603 711.147 467.395C714.122 472.761 713.146 479.207 713.103 485.117C713.282 487.025 712.928 488.944 712.08 490.662C711.232 492.38 709.923 493.828 708.3 494.846C706.086 495.939 703.612 496.395 701.154 496.164H26.4531C23.2512 496.164 19.0541 496.831 16.2711 495.054C11.4682 491.988 13.3787 485.59 13.0398 480.787C12.5622 473.988 2.09994 471.613 0.461631 479.084C0.304051 480.408 0.21499 481.738 0.194805 483.071H13.0024C12.3096 478.446 12.6745 473.725 14.0698 469.262C17.1044 463.081 20.6541 457.166 24.6814 451.58C32.9877 438.409 41.6302 425.452 50.3821 412.575C59.0432 399.83 67.8138 387.158 76.6938 374.561C80.4293 369.254 84.1729 363.956 87.9245 358.666C89.8637 356.516 91.4513 354.074 92.6286 351.43C93.6346 347.782 92.8554 342.87 92.8528 339.121L92.8287 275.75C92.8287 267.507 80.0211 267.494 80.0211 275.75C80.0211 300.408 80.0309 325.067 80.0504 349.727L80.9256 346.493C55.7453 381.85 30.3995 417.333 7.83937 454.44C4.23188 460.35 0.835187 465.981 0.266848 473.057C-0.0529383 476.386 -0.0779393 479.737 0.192137 483.071C0.192137 484.769 0.866823 486.398 2.06777 487.599C3.26872 488.8 4.89756 489.475 6.59596 489.475C8.29436 489.475 9.92319 488.8 11.1241 487.599C12.3251 486.398 13.0024 484.769 13.0024 483.071C13.1225 482.022 13.5334 479.21 12.813 482.489L0.232161 480.787C0.381583 482.892 0.250839 485.056 0.250839 487.158C-0.0560004 492.754 1.8056 498.253 5.44861 502.512C10.5183 508.152 17.301 508.972 24.3932 508.972H695.57C700.356 509.358 705.173 509.044 709.869 508.038C715.159 506.411 719.685 502.929 722.612 498.232C725.924 492.895 725.908 487.124 725.958 481.053C726.02 473.887 725.806 467.363 722.223 460.932C719.963 456.871 717.433 452.927 714.963 449.005C709.421 440.176 703.665 431.477 697.83 422.835C685.526 404.616 672.833 386.661 660.069 368.763C655.175 361.903 650.283 355.045 645.393 348.188L646.268 351.419C646.252 309.693 646.238 267.967 646.226 226.243C646.211 181.503 646.202 136.765 646.199 92.0294C646.199 72.5565 646.199 53.0835 646.199 33.6106C646.199 23.4472 643.371 14.0576 635.128 7.50965C627.591 1.53008 619.242 0.953735 610.036 0.953735L521.45 0.985754L411.446 1.02311L295.963 1.06313L190.914 1.09782L111.963 1.12184C102.549 1.12184 93.6986 3.80877 87.3268 11.1198C80.1759 19.3274 79.909 28.7303 79.9117 39.0431L79.9357 102.081L79.9917 243.424C79.9917 254.202 79.9962 264.979 80.0051 275.755C80.0078 283.989 92.8154 284.005 92.8127 275.75Z" fill="#211715"/>
<path d="M664.015 459.531H82.9215C75.0581 459.531 67.1788 459.374 59.3154 459.531C58.9765 459.531 58.6377 459.531 58.2988 459.531C50.0566 459.531 50.0432 472.339 58.2988 472.339H639.392C647.253 472.339 655.135 472.496 662.996 472.339C663.334 472.339 663.676 472.339 664.015 472.339C672.254 472.339 672.268 459.531 664.015 459.531Z" fill="#211715"/>
<path d="M446.018 115.721C452.334 159.371 460.515 215.93 466.879 259.919C467.154 261.829 467.804 263.667 468.79 265.326C469.777 266.986 471.08 268.434 472.627 269.59C474.174 270.745 475.933 271.584 477.804 272.059C479.675 272.534 481.621 272.636 483.531 272.358C534.1 265.042 641.778 249.481 694.654 241.825C696.565 241.551 698.404 240.902 700.063 239.916C701.723 238.93 703.172 237.626 704.327 236.079C705.482 234.532 706.321 232.773 706.794 230.901C707.268 229.03 707.368 227.083 707.089 225.173C700.709 181.203 692.533 124.649 686.231 80.9855C685.958 79.0741 685.31 77.2354 684.325 75.5747C683.34 73.9141 682.036 72.4642 680.49 71.3082C678.943 70.1521 677.184 69.3125 675.312 68.8376C673.441 68.3627 671.494 68.2618 669.584 68.5407C625.237 74.9445 507.866 91.9253 458.458 99.0736C456.547 99.3491 454.71 99.9984 453.051 100.984C451.392 101.97 449.943 103.273 448.788 104.819C447.633 106.365 446.794 108.124 446.318 109.995C445.843 111.865 445.741 113.811 446.018 115.721Z" fill="white"/>
<path d="M440.53 117.706C445.3 150.695 450.072 183.682 454.845 216.669C456.013 224.757 457.183 232.844 458.353 240.929L460.075 252.816C460.374 256.532 460.993 260.215 461.924 263.825C463.089 267.375 465.173 270.552 467.964 273.036C470.754 275.52 474.153 277.221 477.813 277.967C483.625 279.066 489.836 277.417 495.621 276.579C548.132 268.986 600.644 261.393 653.155 253.801L687.61 248.814C693.897 247.904 699.97 247.442 705.141 243.306C708.055 240.914 710.282 237.792 711.594 234.258C712.907 230.724 713.258 226.905 712.612 223.19C708.03 190.304 703.091 157.463 698.342 124.598C697.148 116.351 695.957 108.102 694.767 99.8501C694.249 96.2639 693.73 92.676 693.211 89.0863C692.89 85.0348 692.225 81.018 691.223 77.0791C690.077 73.6028 688.053 70.4815 685.345 68.0182C682.638 65.5549 679.34 63.8332 675.771 63.0201C670.52 61.8727 665.098 63.2255 659.876 63.9807L593.437 73.5864L514.107 85.0599L479.262 90.1002L464.445 92.2348C458.492 93.0967 452.902 93.665 448.006 97.5714C445.287 99.7522 443.157 102.58 441.814 105.797C440.47 109.013 439.954 112.515 440.313 115.982C440.362 117.665 441.052 119.266 442.243 120.457C443.433 121.648 445.034 122.338 446.717 122.386C448.412 122.375 450.034 121.697 451.233 120.498C452.432 119.3 453.11 117.677 453.121 115.982C452.882 114.79 452.895 113.56 453.16 112.372C453.424 111.185 453.934 110.066 454.658 109.088C455.381 108.109 456.3 107.293 457.358 106.691C458.415 106.09 459.587 105.716 460.798 105.595C465.053 104.864 469.36 104.357 473.635 103.727L504.413 99.2764L578.737 88.5286L647.192 78.6294L660.93 76.6415L666.667 75.8117C668.389 75.4342 670.148 75.2551 671.91 75.2781C677.981 75.8304 679.237 81.1482 679.968 86.1939C681.052 93.7077 682.137 101.222 683.224 108.738C687.79 140.355 692.362 171.97 696.941 203.581C698.008 210.868 699.428 218.209 700.124 225.538C700.277 226.688 700.197 227.857 699.887 228.974C699.578 230.092 699.046 231.136 698.323 232.043C697.601 232.95 696.702 233.702 695.682 234.254C694.662 234.805 693.541 235.145 692.386 235.253C682.247 237.052 671.961 238.21 661.779 239.683C611.043 247.024 560.305 254.361 509.565 261.693L493.652 263.993C489.383 264.612 484.225 266.128 480.377 265.413C474.411 264.3 473.781 258.579 473.058 253.59L469.768 230.843C465.168 199.053 460.569 167.263 455.971 135.471L452.905 114.272C452.444 112.64 451.359 111.256 449.885 110.419C448.41 109.582 446.665 109.359 445.028 109.8C443.403 110.282 442.027 111.374 441.188 112.848C440.35 114.322 440.114 116.062 440.53 117.706Z" fill="#211715"/>
<path d="M468.381 132.515C496.093 150.691 524.15 168.331 552.551 185.434C555.753 187.356 558.955 189.268 562.157 191.171C565.719 193.631 569.505 195.75 573.465 197.5C575.328 198.143 577.301 198.402 579.266 198.262C581.232 198.121 583.148 197.585 584.901 196.684C588.446 194.343 591.582 191.434 594.181 188.073C606.277 175.278 618.139 162.273 629.765 149.058C643.151 133.917 656.33 118.595 669.303 103.095C670.464 101.873 671.111 100.252 671.111 98.5667C671.111 96.8814 670.464 95.2605 669.303 94.0386C668.096 92.8507 666.469 92.1849 664.775 92.1849C663.081 92.1849 661.455 92.8507 660.247 94.0386C638.368 120.065 616.093 145.763 592.948 170.671C590.209 173.617 587.456 176.552 584.69 179.476C583.392 180.851 582.09 182.223 580.784 183.591C579.965 184.45 579.268 185.643 577.966 185.523C576.899 185.421 575.453 184.143 574.583 183.631L570.119 181C566.752 179.008 563.389 177.004 560.03 174.988C546.274 166.733 532.606 158.335 519.024 149.795C504.205 140.497 489.478 131.051 474.843 121.458C467.93 116.922 461.505 128.008 468.381 132.515Z" fill="#211715"/>
<path d="M791.939 103.172L733.131 111.686L724.64 112.919C723.009 113.38 721.624 114.465 720.786 115.939C719.949 117.413 719.726 119.158 720.166 120.796C720.654 122.41 721.745 123.774 723.212 124.607C724.678 125.439 726.409 125.676 728.045 125.268L786.84 116.756L795.331 115.526C796.963 115.065 798.347 113.979 799.184 112.504C800.021 111.03 800.243 109.284 799.803 107.647C799.315 106.033 798.225 104.668 796.759 103.835C795.292 103.003 793.562 102.766 791.926 103.175L791.939 103.172Z" fill="#211715"/>
<path d="M774.11 141.768L735.268 147.398L729.753 148.199C728.121 148.66 726.736 149.746 725.899 151.221C725.062 152.695 724.84 154.441 725.281 156.078C725.768 157.692 726.858 159.057 728.325 159.89C729.791 160.722 731.521 160.959 733.157 160.55L771.999 154.92L777.515 154.12C779.146 153.659 780.531 152.574 781.368 151.1C782.205 149.625 782.427 147.88 781.987 146.243C781.498 144.629 780.408 143.265 778.942 142.433C777.476 141.6 775.746 141.363 774.11 141.771V141.768Z" fill="#211715"/>
<path d="M757.273 180.221L737.651 183.065L734.865 183.468C733.255 183.909 731.882 184.962 731.039 186.403C730.614 187.129 730.337 187.932 730.222 188.765C730.108 189.599 730.159 190.447 730.372 191.26C730.585 192.074 730.957 192.838 731.466 193.508C731.974 194.178 732.61 194.741 733.336 195.166C734.859 195.937 736.6 196.165 738.27 195.811L757.892 192.967L760.678 192.561C762.287 192.119 763.66 191.066 764.504 189.626C765.36 188.131 765.592 186.358 765.15 184.693C764.701 183.087 763.649 181.716 762.215 180.866C760.692 180.095 758.951 179.867 757.281 180.221H757.273Z" fill="#211715"/>
</g>
<defs>
<clipPath id="clip0_103_223">
<rect width="801" height="510" fill="white"/>
</clipPath>
</defs>
</svg>
