<svg width="467" height="439" viewBox="0 0 467 439" fill="none" xmlns="http://www.w3.org/2000/svg">
<g clip-path="url(#clip0_101_112)">
<path d="M425.123 219.981L399.971 218.843C395.652 210.483 387.468 214.565 384.429 221.066C381.593 227.131 379.591 233.434 377.2 239.698C372.184 252.838 374.001 261.253 376.918 274.348C378.488 281.385 378.763 287.209 375.639 293.742C375.639 293.742 375.214 295.009 374.714 296.487C384.898 299.123 400.073 303.155 409.093 305.885C409.349 300.565 410.203 294.773 410.202 291.834C417.091 290.244 423.567 287.36 429.243 283.357C436.628 278.346 441.25 271.156 446.144 264.307C448.671 262.797 450.947 260.944 452.897 258.807C454.184 257.491 459.698 248.368 454.158 249.988L453.66 247.347C454.471 246.867 455.252 246.344 456.001 245.782C458.756 243.641 463.985 237.08 459.883 234.309C459.01 233.78 458.009 233.467 456.972 233.4C455.936 233.333 454.898 233.515 453.957 233.928L453.492 231.627C456.151 230.584 458.613 229.144 460.784 227.363C465.484 224.607 463.63 216.813 457.574 217.326C454.896 217.553 452.038 219.204 449.477 221.085L425.123 219.981Z" fill="white"/>
<path d="M37.3903 306.869C36.5498 298.211 28.0517 292.383 21.434 286.314C11.2946 277.011 4.12818 262.724 3.14059 259.184L4.00665 258.094C3.34527 256.37 2.6276 251.816 3.6331 250.247C4.02146 249.517 4.56457 248.871 5.22885 248.347C5.89312 247.823 6.66447 247.433 7.4952 247.201C9.60536 246.886 11.7672 247.142 13.729 247.938L15.1951 248.691C15.1362 248.492 15.0876 248.291 15.0416 248.089C14.6687 246.692 14.7168 245.225 15.1805 243.852C15.6442 242.48 16.5051 241.256 17.6666 240.318C19.0597 239.338 23.3094 238.555 25.9038 240.784L26.8811 241.627L26.8338 241.539C25.8961 239.773 25.2872 238.555 25.2335 238.353C24.7819 236.661 24.0642 231.925 26.1034 229.723C27.8687 227.815 31.4763 226.351 33.3952 226.771C35.2297 227.129 36.9018 228.013 38.1822 229.3C33.6421 219.048 28.3126 206.805 26.9016 202.808C25.6595 199.292 23.7354 192.814 27.5336 190.723C31.9662 188.287 34.7959 190.304 37.27 192.614C40.7036 195.817 53.5026 224.689 58.2052 236.084C62.0046 236.205 65.639 237.069 67.87 239.544C71.507 243.58 73.1777 249.37 74.0361 253.451C74.608 257.06 74.2818 260.746 73.083 264.216C71.6151 268.483 70.4652 272.842 69.6418 277.26C68.635 281.766 68.1489 286.479 69.3859 290.774C66.5409 292.193 37.3903 306.869 37.3903 306.869Z" fill="white"/>
<path d="M286.602 216.69C285.937 216.425 267.081 207.984 266.646 207.839C259.994 205.576 260.249 201.554 259.418 197.05C258.81 193.852 258.389 190.625 258.156 187.384C275.634 180.691 289.754 158.468 292.202 152.231C292.565 151.192 293.304 149.238 293.964 146.918C294.85 146.771 295.348 146.699 295.348 146.699C298.304 146.235 301.081 145.058 303.408 143.281C306.271 140.99 308.575 138.144 310.162 134.938C313.528 128.592 314.975 121.497 314.347 114.43C314.26 112.623 313.77 110.853 312.91 109.236C312.168 108.064 311.156 107.064 309.949 106.309C308.742 105.553 307.371 105.062 305.936 104.871C304.473 104.669 302.982 104.767 301.563 105.158C300.145 105.549 298.833 106.223 297.716 107.135C297.716 107.135 303.607 53.4985 227.267 53.4985C155.485 53.4985 159.85 107.138 159.85 107.138C158.734 106.227 157.422 105.552 156.003 105.162C154.585 104.771 153.093 104.673 151.631 104.874C150.196 105.066 148.825 105.557 147.618 106.312C146.411 107.068 145.399 108.068 144.656 109.24C143.797 110.857 143.308 112.626 143.221 114.433C142.595 121.501 144.044 128.594 147.411 134.939C148.998 138.145 151.302 140.991 154.165 143.283C156.492 145.059 159.269 146.237 162.225 146.7L164.848 147.077C167.407 156.028 171.946 164.369 178.169 171.553C183.489 177.791 190.145 182.904 197.704 186.559C197.483 190.081 197.032 193.586 196.353 197.055C195.515 201.556 195.777 205.579 189.13 207.838C188.69 207.989 167.664 217.245 166.383 217.657C166.383 217.657 167.262 248.381 218.89 248.381C278.02 248.38 286.602 216.69 286.602 216.69Z" fill="white"/>
<path d="M235.079 295.078C231.814 302.22 228.864 308.436 226.533 313.173C226.533 313.173 226.344 313.557 226.021 314.229C214.927 289.257 205.228 263.757 196.963 237.832C196.148 235.258 195.407 232.801 194.742 230.461C194.975 230.516 195.113 230.546 195.113 230.546C205.187 233.146 215.573 234.524 226.018 234.648C238.164 234.427 250.223 232.659 261.865 229.392C260.797 232.575 259.598 236.003 258.235 239.679C251.192 258.664 242.354 279.168 235.079 295.078Z" fill="white"/>
<path d="M172.317 198.024C181.957 196.644 190.142 192.254 193.775 187.124L195.038 185.217C188.593 181.646 182.879 177.018 178.167 171.552C171.944 164.368 167.404 156.027 164.846 147.076L162.222 146.699C159.267 146.236 156.49 145.058 154.163 143.281C153.148 142.502 152.211 141.635 151.365 140.694C149.549 144.066 148.376 147.712 147.902 151.466C147.601 153.849 147.472 156.249 147.518 158.648C147.527 159.135 147.546 159.624 147.576 160.115C147.878 165.352 149.177 170.687 149.452 175.904C149.731 181.587 148.16 187.183 142.4 189.029C142.172 189.101 142.126 189.795 142.134 189.972C142.171 190.408 142.33 190.828 142.596 191.187C143.375 192.195 144.384 193.027 145.548 193.623C151.976 197.325 161.855 199.522 172.317 198.024Z" fill="#957F6E"/>
<path d="M308.558 64.4565C308.302 63.0307 308.032 61.7097 307.775 60.5224C300.627 27.5535 265.346 1.37843 228.348 3.29185C191.348 1.37843 156.07 27.5535 148.922 60.5272C146.986 69.4212 147.218 84.6371 148.978 91.7369L152.516 104.796C155.193 104.637 157.829 105.478 159.852 107.136C174.475 97.588 199.28 81.0054 212.124 70.6037C211.067 76.7751 207.313 87.2719 212.042 86.1929C231.786 81.8892 250.709 73.2108 262.15 59.6711C264.562 67.6656 268.547 78.4658 271.475 83.1849C275.618 89.8632 287.624 104.89 297.716 107.136C298.833 106.224 300.145 105.55 301.563 105.159C302.982 104.769 304.473 104.671 305.936 104.872C306.368 104.933 306.795 105.021 307.215 105.136C312.359 93.9273 310.627 75.8262 308.558 64.4565Z" fill="#957F6E"/>
<path d="M151.895 91.2505C151.079 87.4258 150.664 83.5349 150.655 79.6339C150.493 74.9015 150.673 70.1642 151.195 65.4548C152.318 56.9579 155.343 48.7819 160.07 41.4665C169.888 26.0575 185.356 14.5627 203.558 9.15023C208.095 7.79595 212.767 6.87849 217.502 6.41195C222.332 5.96038 227.206 6.08923 232.051 6.08321C241.616 6.10872 251.079 7.93559 259.882 11.4562C277.541 18.455 291.845 31.3287 300.064 47.621C303.493 55.0469 305.668 62.9313 306.511 70.9892C307.687 79.9229 308.336 89.3925 306.288 98.2564C305.823 100.309 305.161 102.318 304.311 104.258C304.099 104.997 304.206 105.785 304.607 106.45C305.008 107.116 305.672 107.606 306.455 107.814C307.24 107.998 308.07 107.891 308.773 107.515C309.476 107.139 309.999 106.523 310.233 105.794C314.131 97.004 314.071 86.6952 313.329 77.3544C312.629 68.5941 311.343 59.5532 308.219 51.2396C301.439 33.1867 286.873 18.0575 268.953 9.14421C259.777 4.55482 249.747 1.67211 239.413 0.653607C234.344 0.28036 229.257 0.163387 224.174 0.303193C218.996 0.34098 213.836 0.873546 208.772 1.8927C188.546 6.13323 170.685 17.2285 158.589 33.065C152.696 40.6825 148.496 49.3405 146.24 58.5212C144.209 67.8595 143.793 77.445 145.006 86.9083C145.207 88.884 145.53 90.8469 145.974 92.7871C146.849 96.4128 152.771 94.8787 151.895 91.2505Z" fill="#211715"/>
<path d="M259.482 61.4112C260.912 66.0135 262.5 70.5773 264.305 75.0616C265.649 78.6961 267.353 82.2036 269.395 85.5379C273.661 92.2 278.962 98.2234 285.123 103.408C288.543 106.216 292.431 108.867 296.9 109.921C300.738 110.823 302.37 105.251 298.533 104.347C291.678 102.732 285.786 96.3995 281.318 91.2987C276.837 86.3155 273.242 80.6827 270.673 74.6185C268.675 69.7849 266.95 64.8479 265.404 59.871C264.297 56.3079 258.368 57.8239 259.482 61.4075V61.4112Z" fill="#211715"/>
<path d="M260.178 57.3928C253.562 64.959 245.259 71.063 235.858 75.2724C231.032 77.519 226.028 79.408 220.89 80.9223C218.21 81.7251 215.502 82.4384 212.768 83.0621C212.432 83.1392 212.076 83.2018 211.745 83.2945C211.243 83.4342 211.169 83.197 211.581 83.3752C211.396 83.2945 211.165 83.1404 211.809 83.4342C212.084 83.5376 212.341 83.6806 212.57 83.8581C212.714 83.9572 212.818 84.0994 212.864 84.2615C212.864 84.1784 212.807 83.71 212.804 84.1013C212.804 84.5408 212.791 83.8256 212.791 83.7401C212.761 79.7567 214.358 75.5192 215.094 71.372C215.25 70.7618 215.193 70.1204 214.932 69.543C214.67 68.9657 214.217 68.4832 213.641 68.1674C213.064 67.8516 212.395 67.7192 211.733 67.79C211.07 67.8608 210.449 68.131 209.963 68.5603C197.063 78.9716 183.062 88.2256 169.212 97.4508C165.586 99.8639 161.95 102.262 158.302 104.644C157.615 105.045 157.117 105.678 156.912 106.414C156.707 107.151 156.81 107.933 157.201 108.599C157.617 109.256 158.29 109.732 159.076 109.926C159.862 110.12 160.697 110.016 161.402 109.636C175.858 100.191 190.226 90.5822 204.123 80.413C207.569 77.8914 210.982 75.3265 214.294 72.6509L209.159 69.8367C208.378 74.2597 206.74 78.6753 206.641 83.185C206.526 84.1233 206.649 85.0739 206.999 85.959C207.35 86.844 207.918 87.6385 208.657 88.2774C210.898 89.8874 213.748 88.806 216.184 88.2112C228.196 85.448 239.594 80.7081 249.853 74.2103C255.374 70.6619 260.315 66.3736 264.52 61.481C265.073 60.9281 265.381 60.1971 265.381 59.4375C265.381 58.6779 265.073 57.947 264.52 57.394C263.941 56.8571 263.161 56.556 262.349 56.556C261.536 56.556 260.756 56.8571 260.178 57.394V57.3928Z" fill="#211715"/>
<path d="M148.708 139.235C144.742 146.625 143.835 155.082 144.787 163.238C145.299 167.6 146.259 171.935 146.4 176.33C146.487 179.033 146.245 182.211 144.36 184.41C143.37 185.566 142.148 185.81 140.855 186.522C138.753 187.679 138.731 190.434 139.72 192.259C141.463 195.471 145.784 197.21 149.156 198.498C157.136 201.406 165.823 202.148 174.229 200.639C182.643 199.215 191.472 195.393 196.424 188.586C198.662 185.508 193.343 182.615 191.122 185.668C186.438 192.107 176.65 194.978 168.783 195.503C163.964 195.85 159.117 195.387 154.47 194.135C152.584 193.631 150.753 192.96 149.002 192.13C148.05 191.697 147.135 191.193 146.267 190.623C145.972 190.419 145.666 190.031 145.364 189.871C144.98 189.666 145.334 189.548 145.217 189.939L144.428 191.215L144.568 191.061L143.213 191.805C153.029 188.464 153.064 178.384 151.912 170.162C150.582 160.734 149.272 150.991 154.009 142.153C155.784 138.841 150.49 135.911 148.708 139.235Z" fill="#211715"/>
<path d="M299.887 109.181C300.624 108.61 301.476 108.185 302.391 107.933C303.307 107.68 304.267 107.605 305.215 107.712C306.162 107.819 307.077 108.105 307.903 108.554C308.729 109.003 309.451 109.605 310.023 110.323C311.014 112.082 311.486 114.059 311.388 116.048C311.516 118.49 311.37 120.938 310.95 123.351C309.401 131.88 304.626 142.28 294.532 143.912C293.751 144.121 293.087 144.611 292.686 145.276C292.285 145.941 292.177 146.728 292.387 147.467C292.619 148.197 293.142 148.814 293.846 149.19C294.549 149.566 295.38 149.672 296.165 149.485C306.616 147.799 312.819 138.503 315.68 129.631C317.186 124.973 317.796 120.1 317.481 115.24C317.152 110.473 315.621 105.988 310.95 103.507C308.521 102.247 305.738 101.724 302.981 102.008C300.225 102.292 297.628 103.37 295.546 105.094C294.976 105.639 294.657 106.373 294.657 107.137C294.657 107.902 294.976 108.635 295.546 109.181C296.129 109.709 296.907 110.004 297.716 110.004C298.526 110.004 299.304 109.709 299.887 109.181Z" fill="#211715"/>
<path d="M292.172 139.5C292.004 142.285 291.456 145.037 290.54 147.689C290.214 148.722 289.854 149.744 289.49 150.765C289.391 151.041 289.296 151.319 289.189 151.593C289.104 151.808 288.722 152.611 289.117 151.781C287.786 154.512 286.254 157.154 284.534 159.686C279.695 167.231 273.517 173.938 266.268 179.516C262.313 182.579 257.689 184.782 252.725 185.968C248.875 186.801 250.505 192.376 254.357 191.542C264.65 189.315 273.265 182.327 280.047 175.015C285.745 169.08 290.506 162.404 294.186 155.193C296.621 150.261 298.022 144.933 298.313 139.5C298.441 135.78 292.3 135.784 292.172 139.5Z" fill="#211715"/>
<path d="M162.022 105.094C160.201 103.576 157.976 102.553 155.585 102.133C153.193 101.713 150.726 101.912 148.446 102.709C143.417 104.577 140.898 108.559 140.258 113.46C139.053 123.144 141.679 132.907 147.635 140.884C150.864 145.323 155.8 148.408 161.399 149.485C162.184 149.667 163.012 149.559 163.715 149.184C164.417 148.809 164.94 148.194 165.176 147.467C165.385 146.728 165.278 145.942 164.877 145.277C164.476 144.612 163.813 144.122 163.032 143.912C152.938 142.281 148.162 131.879 146.612 123.351C146.209 121.027 146.06 118.67 146.166 116.318C146.241 114.33 146.335 112.039 147.541 110.323C148.113 109.604 148.834 109.002 149.66 108.553C150.486 108.103 151.401 107.817 152.348 107.71C153.296 107.603 154.257 107.678 155.172 107.931C156.088 108.184 156.939 108.609 157.676 109.181C158.261 109.705 159.038 109.998 159.846 109.998C160.655 109.998 161.432 109.705 162.017 109.181C162.587 108.635 162.906 107.902 162.906 107.137C162.906 106.373 162.587 105.639 162.017 105.094H162.022Z" fill="#211715"/>
<path d="M159.674 138.566C163.412 158.874 175.105 178.749 195.094 188.55C200.494 191.199 206.381 192.857 212.439 193.434C213.252 193.429 214.03 193.123 214.605 192.582C215.18 192.041 215.505 191.309 215.51 190.544C215.492 189.783 215.163 189.057 214.591 188.519C214.019 187.98 213.248 187.671 212.439 187.654C191.829 185.643 175.771 168.245 169.296 150.765C167.666 146.29 166.427 141.696 165.594 137.029C165.372 136.294 164.852 135.67 164.145 135.292C163.439 134.915 162.603 134.814 161.818 135.011C161.042 135.229 160.387 135.721 159.987 136.383C159.588 137.046 159.475 137.828 159.674 138.566Z" fill="#211715"/>
<path d="M194.598 186.592C194.39 189.574 194.023 192.545 193.497 195.493C193.18 197.262 193 199.08 192.502 200.814C192.373 201.461 192.101 202.076 191.702 202.616C191.303 203.157 190.787 203.612 190.188 203.952C189.153 204.497 188.078 204.972 186.972 205.373C181.715 207.621 176.495 209.949 171.25 212.219C169.866 212.821 168.48 213.423 167.091 214.007C166.614 214.209 166.134 214.409 165.656 214.609C164.874 214.938 166.288 214.399 165.569 214.641C164.795 214.861 164.14 215.352 163.741 216.014C163.342 216.676 163.229 217.457 163.425 218.195C163.647 218.931 164.168 219.554 164.874 219.932C165.58 220.31 166.416 220.411 167.201 220.215C169.275 219.516 171.278 218.529 173.277 217.671C176.531 216.267 179.78 214.853 183.025 213.432C185.373 212.407 187.722 211.384 190.07 210.362C190.102 210.349 190.64 210.137 190.636 210.121C190.636 210.139 189.053 210.732 190.445 210.218C190.848 210.07 191.257 209.907 191.65 209.742C192.279 209.485 192.885 209.181 193.463 208.833C195.496 207.603 197.065 205.801 197.947 203.683C198.632 201.705 199.091 199.663 199.314 197.593C199.984 193.95 200.459 190.277 200.738 186.589C200.738 185.823 200.415 185.088 199.839 184.546C199.263 184.004 198.482 183.699 197.668 183.699C196.854 183.699 196.073 184.004 195.497 184.546C194.921 185.088 194.598 185.823 194.598 186.589V186.592Z" fill="#211715"/>
<path d="M288.159 213.969C281.539 211.232 275.102 208.091 268.522 205.262L270.043 207.758V207.746C270.025 207.117 269.797 206.511 269.393 206.011C268.988 205.511 268.427 205.143 267.789 204.959C268.98 205.421 267.022 204.669 266.807 204.58C266.404 204.405 266.013 204.206 265.636 203.985C265.153 203.681 264.706 203.329 264.305 202.934C263.997 202.569 263.749 202.163 263.569 201.729C263.312 201.049 263.116 200.349 262.984 199.638C262.148 195.585 261.566 191.49 261.242 187.373C261.223 186.612 260.894 185.888 260.322 185.349C259.75 184.811 258.98 184.501 258.172 184.483C257.36 184.489 256.582 184.796 256.008 185.336C255.433 185.877 255.108 186.609 255.102 187.373C255.336 190.426 255.735 193.465 256.253 196.485C256.573 198.347 256.789 200.26 257.276 202.092C257.748 203.992 258.733 205.746 260.137 207.182C261.876 208.68 263.927 209.822 266.16 210.534L263.906 207.748V207.76C263.9 208.266 264.038 208.763 264.306 209.202C264.573 209.641 264.96 210.004 265.427 210.255C272.005 213.084 278.442 216.224 285.063 218.961C285.772 219.324 286.601 219.419 287.382 219.227C288.162 219.034 288.835 218.568 289.263 217.924C289.668 217.261 289.78 216.475 289.574 215.735C289.367 214.995 288.86 214.362 288.162 213.971L288.159 213.969Z" fill="#211715"/>
<path d="M114.595 384.852C113.73 385.487 112.85 386.112 111.953 386.725C104.009 392.162 97.018 395.311 87.9403 394.399C72.277 392.824 59.8119 369.006 50.8302 353.434C46.198 345.404 32.712 314.492 28.7271 303.864C32.8054 300.928 68.9574 284.075 73.3913 282.036C78.6606 293.738 83.6548 304.368 89.8759 315.923C89.9078 315.817 89.9232 315.763 89.9232 315.763C90.9082 312.524 94.6565 303.79 95.2066 301.554C99.1851 285.623 103.048 270.209 105.492 261.383C106.989 256.012 110.161 247.776 114.664 242.754C116.138 241.623 117.708 240.608 119.359 239.72L119.83 239.479L120.597 238.9C123.591 236.648 127.505 235.131 130.87 233.409C144.997 226.184 157.664 219.896 172.318 213.668C178.733 207.859 185.915 202.684 188.419 202.413C190.406 214.39 193.261 226.224 196.962 237.834C205.227 263.759 214.926 289.26 226.02 314.231C226.344 313.56 226.532 313.175 226.532 313.175C234.054 297.882 248.031 267.187 258.231 239.681C264.563 222.605 267.349 210.902 269.722 203.383C271.257 203.453 274.726 205.689 278.714 208.88C298.671 216.743 314.113 224.341 331.843 233.409C335.137 235.095 338.432 236.214 341.376 238.375C337.811 235.952 344.466 239.858 345.291 240.733C349.795 245.754 352.975 253.995 354.463 259.366C356.907 268.188 360.77 283.607 364.75 299.539C365.422 302.1 366.257 304.621 367.249 307.088L367.71 308.1C369.083 303.977 370.149 299.77 370.901 295.508C382.812 298.559 407.049 304.949 414.44 307.624C412.451 317.366 399.13 363.564 394.356 377.912C390.134 390.599 381.403 403.401 365.534 402.034C352.239 400.888 339.524 394.094 332.965 382.784C329.031 375.999 322.526 365.603 320.443 358.288C320.443 358.288 319.793 356.008 318.832 352.64C317.707 359.503 316.602 366.358 315.543 373.1C314.647 378.806 318.919 409.079 322.777 435.845L135.035 435.735C138.891 409.002 143.151 378.798 142.255 373.1C141.417 367.768 140.555 362.383 139.683 357.004C133.4 367.783 124.866 377.256 114.595 384.852Z" fill="#BDBDBD"/>
<path d="M402.621 217.386C401.981 216.021 401.046 214.797 399.876 213.791C398.705 212.786 397.325 212.02 395.823 211.545C394.531 211.251 393.19 211.202 391.878 211.401C390.566 211.599 389.308 212.042 388.18 212.702C382.179 216.019 380.15 222.959 377.985 228.74C375.381 235.694 372.372 242.67 371.369 250.024C370.464 256.647 371.435 263.252 372.79 269.764C374.374 277.369 376.463 284.833 372.982 292.282C372.596 292.949 372.495 293.73 372.7 294.465C372.905 295.199 373.399 295.833 374.083 296.236C374.788 296.618 375.624 296.723 376.41 296.529C377.196 296.335 377.869 295.857 378.284 295.2C381.065 289.051 381.775 282.248 380.318 275.708C379.18 269.64 377.455 263.686 377.171 257.499C376.872 250.963 378.487 244.976 380.767 238.854C382.029 235.465 383.213 232.052 384.512 228.676C385.426 225.789 386.701 223.014 388.309 220.41C388.899 219.602 389.602 218.873 390.399 218.242C391.178 217.599 392.137 217.181 393.162 217.038C393.798 216.953 394.445 217.099 394.97 217.447C395.999 218.197 396.807 219.182 397.319 220.309C399.11 223.627 404.406 220.705 402.621 217.391V217.386Z" fill="#211715"/>
<path d="M412.157 305.885C412.365 301.651 412.97 297.448 413.219 293.217C413.213 292.452 412.888 291.72 412.314 291.179C411.739 290.638 410.961 290.332 410.148 290.327C409.34 290.344 408.569 290.654 407.997 291.192C407.425 291.731 407.096 292.456 407.078 293.217C406.83 297.448 406.225 301.647 406.016 305.885C406.022 306.65 406.347 307.382 406.922 307.923C407.496 308.464 408.274 308.77 409.086 308.775C409.896 308.76 410.667 308.45 411.239 307.912C411.811 307.373 412.14 306.647 412.157 305.885Z" fill="#211715"/>
<path d="M395.254 294.988C406.547 296.778 417.603 293.783 427.193 288.13C431.682 285.537 435.707 282.293 439.122 278.519C442.198 274.933 445.06 271.188 447.693 267.303C450.55 262.971 453.89 258.938 457.655 255.273C460.494 252.675 456.149 248.591 453.313 251.186C446.609 257.327 442.235 265.194 436.683 272.185C430.888 279.473 422.894 284.947 413.743 287.893C408.347 289.706 402.557 290.229 396.893 289.413C396.108 289.232 395.28 289.34 394.578 289.716C393.876 290.091 393.353 290.705 393.116 291.432C392.906 292.171 393.013 292.958 393.415 293.623C393.816 294.288 394.479 294.778 395.26 294.988H395.254Z" fill="#211715"/>
<path d="M444.001 221.662C441.962 223.163 440.451 225.208 439.665 227.53C439.347 228.604 439.345 229.74 439.657 230.816C439.969 231.891 440.584 232.868 441.438 233.641C442.471 234.416 443.664 234.981 444.941 235.3C446.218 235.619 447.552 235.685 448.858 235.494C451.658 235.27 454.387 234.54 456.894 233.343C457.938 232.829 458.941 232.245 459.895 231.595C460.371 231.277 460.838 230.949 461.302 230.614C461.686 230.339 462.06 230.065 462.436 229.787C462.564 229.694 462.988 229.527 462.612 229.659C462.297 229.77 462.634 229.659 462.759 229.575C464.584 228.37 465.849 226.554 466.296 224.499C467.095 220.375 464.921 215.866 460.4 214.688C457.413 213.91 454.282 214.873 451.658 216.22C448.896 217.754 446.329 219.578 444.007 221.658C443.435 222.203 443.115 222.937 443.115 223.702C443.115 224.467 443.435 225.201 444.007 225.745C444.591 226.271 445.369 226.565 446.177 226.565C446.986 226.565 447.764 226.271 448.348 225.745C449.161 225.064 449.979 224.39 450.822 223.742C451.034 223.579 451.248 223.423 451.462 223.26C451.732 223.053 451.422 223.288 451.382 223.317L451.71 223.084C452.185 222.752 452.667 222.429 453.161 222.121C453.655 221.813 454.138 221.534 454.645 221.271C454.873 221.15 455.104 221.036 455.337 220.926C455.535 220.834 456.211 220.565 455.644 220.773C456.095 220.601 456.557 220.455 457.027 220.335C457.255 220.278 457.484 220.235 457.714 220.192C458.261 220.087 457.202 220.192 457.861 220.192H458.409C458.496 220.207 458.585 220.213 458.675 220.209C458.675 220.209 457.986 220.088 458.283 220.159C458.444 220.2 458.611 220.221 458.772 220.263C458.85 220.283 458.927 220.311 459.005 220.329C459.405 220.421 458.785 220.268 458.719 220.199C458.972 220.37 459.243 220.515 459.529 220.63C459.945 220.861 459.065 220.2 459.386 220.535C459.502 220.655 459.642 220.776 459.762 220.889C460.203 221.297 459.457 220.407 459.706 220.808C459.782 220.929 459.875 221.049 459.951 221.17C460.028 221.29 460.089 221.427 460.165 221.551C460.391 221.922 459.942 220.897 460.119 221.463C460.206 221.744 460.286 222.021 460.358 222.306C460.365 222.38 460.378 222.452 460.398 222.523C460.398 222.523 460.356 221.85 460.336 222.118C460.324 222.285 460.363 222.464 460.365 222.631C460.365 222.78 460.357 222.925 460.353 223.073C460.336 223.58 460.252 223.114 460.393 222.89C460.277 223.192 460.194 223.503 460.146 223.82C460.132 223.868 460.059 223.98 460.066 224.028C460.066 224.028 460.371 223.451 460.221 223.679C460.139 223.799 460.082 223.946 460.004 224.075C459.926 224.204 459.816 224.323 459.748 224.455C459.629 224.687 459.962 224.18 459.987 224.173C459.928 224.188 459.822 224.359 459.776 224.405C459.648 224.536 459.505 224.66 459.365 224.784C459.297 224.831 459.233 224.883 459.174 224.939C459.189 224.919 459.713 224.618 459.454 224.726C458.852 225.066 458.295 225.47 457.791 225.93C458.205 225.626 457.775 225.938 457.603 226.06C457.403 226.199 457.203 226.337 457.003 226.474C456.576 226.762 456.146 227.04 455.711 227.307C454.901 227.805 454.057 228.249 453.183 228.638C453.079 228.684 452.973 228.726 452.868 228.772C452.541 228.918 453.073 228.688 453.071 228.692C453.048 228.767 452.509 228.896 452.42 228.926C451.935 229.086 451.443 229.227 450.944 229.35C450.421 229.47 449.891 229.572 449.359 229.66C448.762 229.759 449.754 229.632 449.134 229.689C448.819 229.718 448.504 229.747 448.187 229.765C447.707 229.794 447.225 229.792 446.744 229.759C446.635 229.739 446.525 229.729 446.414 229.729C446.444 229.729 447.017 229.849 446.715 229.759C446.501 229.693 446.267 229.67 446.051 229.608C445.965 229.584 445.877 229.545 445.789 229.528C445.447 229.459 446.319 229.795 446.044 229.63C445.888 229.537 445.709 229.445 445.546 229.365C445.162 229.182 446.009 229.826 445.633 229.411C445.585 229.359 445.534 229.309 445.48 229.262C445.181 229.009 445.695 229.452 445.695 229.527C445.695 229.487 445.323 228.804 445.584 229.406C445.805 229.908 445.611 229.369 445.561 229.246C445.416 228.885 445.561 229.968 445.588 229.401C445.618 229.235 445.623 229.066 445.603 228.898C445.603 228.912 445.457 229.551 445.552 229.297C445.595 229.176 445.608 229.041 445.644 228.917C445.68 228.793 445.947 228.237 445.72 228.641C445.478 229.071 445.821 228.464 445.883 228.355C445.995 228.163 446.116 227.977 446.244 227.795C446.302 227.714 446.362 227.635 446.419 227.554C446.69 227.177 446.391 227.668 446.332 227.658C446.524 227.485 446.7 227.299 446.859 227.099C447.335 226.628 447.847 226.187 448.36 225.753C448.931 225.208 449.251 224.474 449.251 223.709C449.251 222.944 448.931 222.21 448.36 221.666C447.775 221.134 446.994 220.837 446.181 220.836C445.369 220.835 444.587 221.131 444.001 221.662Z" fill="#211715"/>
<path d="M452.104 244.852C451.274 245.349 450.426 245.823 449.556 246.257C449.097 246.486 448.632 246.705 448.162 246.911C448.068 246.951 447.272 247.272 447.95 247.009C447.678 247.115 447.403 247.215 447.128 247.308C446.711 247.449 446.29 247.577 445.861 247.682C445.64 247.735 445.416 247.772 445.195 247.824C444.475 247.994 445.877 247.811 445.163 247.834C444.962 247.834 444.764 247.858 444.563 247.853C443.842 247.84 444.581 247.947 444.638 247.886C444.465 247.865 444.296 247.821 444.136 247.755C444.604 247.954 444.698 247.982 444.417 247.842C444.216 247.715 444.232 247.729 444.459 247.884L444.642 248.005C444.427 247.789 444.475 247.862 444.788 248.224C444.707 248.069 444.614 247.921 444.508 247.781C444.736 247.87 444.732 248.409 444.555 247.844C444.528 247.678 444.489 247.513 444.438 247.352C444.701 247.868 444.491 247.85 444.488 247.437C444.518 247.263 444.526 247.085 444.511 246.909C444.667 247.164 444.392 247.524 444.518 246.953C444.573 246.704 444.641 246.457 444.723 246.214C444.764 246.093 444.809 245.965 444.851 245.841C444.933 245.625 444.979 245.108 444.864 245.779C445.003 245.376 445.207 244.995 445.467 244.65C445.694 244.269 445.937 243.898 446.193 243.535C446.323 243.35 446.456 243.168 446.592 242.989C446.679 242.875 447.32 242.104 446.818 242.688C447.89 241.412 449.098 240.242 450.422 239.196C451.089 238.681 449.918 239.538 450.678 239.015C451.034 238.775 451.392 238.534 451.758 238.293C452.652 237.728 453.588 237.223 454.558 236.782C455.285 236.448 454.174 236.882 454.649 236.748C454.851 236.69 455.047 236.611 455.249 236.55C455.488 236.479 455.731 236.417 455.975 236.364C456.131 236.33 456.917 236.26 456.134 236.312C456.377 236.296 456.617 236.277 456.862 236.281C457.059 236.281 457.748 236.428 457.005 236.261C457.243 236.314 457.475 236.372 457.71 236.432C458.034 236.544 458.018 236.537 457.664 236.413C457.816 236.487 457.966 236.568 458.109 236.654C458.81 237.009 457.769 236.251 458.16 236.699C458.24 236.788 458.325 236.874 458.416 236.954C458.149 236.915 458.041 236.425 458.332 236.923C458.641 237.451 458.053 236.275 458.281 236.835C458.434 237.21 458.176 237.305 458.301 236.714C458.295 236.883 458.302 237.051 458.323 237.219C458.323 237.628 458.104 237.643 458.368 237.148C458.291 237.382 458.238 237.621 458.206 237.864C458.154 238.048 458.094 238.225 458.029 238.41C457.963 238.594 457.856 239.167 458.029 238.452C457.862 238.903 457.633 239.33 457.347 239.725C457.091 240.145 456.816 240.553 456.524 240.952C456.396 241.12 456.268 241.285 456.14 241.453C455.938 241.705 455.968 241.67 456.229 241.349C456.142 241.453 456.053 241.555 455.965 241.657C455.446 242.257 454.885 242.822 454.284 243.349C454.168 243.449 454.047 243.544 453.931 243.644C453.34 244.145 454.297 243.42 453.761 243.777C453.225 244.133 452.663 244.499 452.098 244.851C451.747 245.041 451.439 245.294 451.192 245.597C450.946 245.899 450.765 246.245 450.661 246.613C450.557 246.982 450.531 247.366 450.586 247.744C450.64 248.121 450.773 248.485 450.977 248.815C451.182 249.144 451.453 249.432 451.776 249.661C452.099 249.891 452.468 250.059 452.86 250.154C453.252 250.25 453.66 250.271 454.061 250.217C454.462 250.164 454.848 250.036 455.196 249.841C459.242 247.547 462.337 244.025 463.973 239.855C464.434 238.706 464.569 237.463 464.364 236.25C464.159 235.037 463.622 233.896 462.805 232.938C461.763 231.92 460.452 231.18 459.007 230.795C457.561 230.409 456.033 230.392 454.578 230.744C452.087 231.331 449.756 232.41 447.742 233.91C445.989 235.091 444.395 236.468 442.995 238.011C439.981 241.374 436.652 246.44 439.285 250.854C442.659 256.5 451.092 252.305 455.196 249.842C455.547 249.652 455.855 249.398 456.102 249.096C456.348 248.794 456.529 248.448 456.633 248.08C456.737 247.711 456.763 247.327 456.709 246.949C456.654 246.571 456.521 246.207 456.317 245.878C456.112 245.549 455.841 245.261 455.518 245.031C455.195 244.801 454.826 244.634 454.434 244.539C454.042 244.443 453.634 244.422 453.233 244.475C452.832 244.529 452.446 244.656 452.098 244.851L452.104 244.852Z" fill="#211715"/>
<path d="M442.054 262.57C441.82 262.536 441.596 262.486 441.367 262.433C441.306 262.418 441.164 262.34 441.104 262.349C441.086 262.349 441.727 262.589 441.447 262.469C440.883 262.212 441.806 262.843 441.494 262.52C441.182 262.196 441.946 263.071 441.561 262.595C441.49 262.508 441.324 262.166 441.552 262.617C441.859 263.226 441.58 262.683 441.602 262.688C441.573 262.681 441.558 262.494 441.543 262.471C441.415 262.274 441.59 262.812 441.585 262.862C441.63 262.481 441.633 262.097 441.595 261.715C441.683 262.204 441.495 262.253 441.571 261.962C441.593 261.874 441.608 261.785 441.63 261.697C441.68 261.486 441.738 261.278 441.804 261.071C441.863 260.89 441.932 260.71 441.994 260.531C442.029 260.441 442.072 260.352 442.103 260.262C442.213 259.923 441.824 260.806 442.074 260.327C442.454 259.589 442.885 258.875 443.363 258.189C443.569 257.896 443.788 257.611 444.003 257.326C444.317 256.914 443.593 257.788 443.941 257.403C444.087 257.24 444.23 257.076 444.38 256.915C444.9 256.382 445.455 255.882 446.043 255.416C446.284 255.217 445.75 255.622 445.767 255.616C445.868 255.559 445.964 255.493 446.053 255.42C446.2 255.322 446.349 255.228 446.5 255.137C446.865 254.915 447.24 254.711 447.626 254.523C447.826 254.424 448.032 254.334 448.237 254.241C448.877 253.949 447.823 254.377 448.338 254.195C448.809 254.029 449.278 253.868 449.761 253.729C450.814 253.433 451.886 253.202 452.972 253.037L453.369 252.977C453.412 252.97 453.862 252.908 453.509 252.955C453.11 253.009 453.82 252.92 453.905 252.909C454.311 252.86 454.718 252.815 455.116 252.733C455.216 252.715 455.316 252.691 455.414 252.662C455.798 252.542 455.075 252.719 455.001 252.703C455.135 252.717 455.27 252.713 455.404 252.692C455.544 252.647 454.558 252.533 454.969 252.653C454.602 252.559 454.269 252.374 454.004 252.118C454.243 252.35 453.514 251.411 453.738 251.798C453.79 251.888 453.427 250.969 453.556 251.446C453.645 251.772 453.556 250.681 453.494 251.034C453.479 251.151 453.477 251.268 453.486 251.385C453.501 251.899 453.639 250.722 453.531 251.109C453.381 251.701 453.198 252.285 452.983 252.86C452.919 252.99 452.863 253.123 452.814 253.258C452.92 252.891 453.07 252.713 452.845 253.17C452.695 253.483 452.537 253.792 452.373 254.098C451.838 255.082 451.236 256.033 450.573 256.945C450.293 257.334 451.129 256.351 450.812 256.656C450.729 256.737 450.651 256.826 450.57 256.909C450.169 257.322 449.757 257.729 449.34 258.13C448.473 258.974 447.559 259.774 446.602 260.525C446.504 260.601 446.403 260.675 446.304 260.752C446.027 260.972 446.688 260.495 446.221 260.81C445.982 260.969 445.745 261.13 445.501 261.282C444.958 261.62 444.389 261.884 443.821 262.182C443.495 262.352 444.024 262.086 444.024 262.109C443.888 262.171 443.745 262.221 443.598 262.258C443.32 262.347 443.034 262.406 442.75 262.48C442.638 262.51 442.323 262.504 442.736 262.495C443.242 262.485 442.561 262.501 442.465 262.505C442.053 262.525 441.64 262.513 441.229 262.47C440.416 262.472 439.636 262.777 439.061 263.319C438.485 263.86 438.161 264.594 438.159 265.36C438.182 266.12 438.513 266.842 439.084 267.38C439.655 267.917 440.422 268.229 441.229 268.25C444.242 268.399 447.203 267.473 449.523 265.658C451.587 264.222 453.475 262.573 455.151 260.743C456.095 259.655 456.906 258.469 457.567 257.209C458.448 255.749 459.089 254.172 459.469 252.532C459.889 250.235 459.213 247.86 456.598 247.078C456.119 246.945 455.62 246.889 455.121 246.912C454.717 246.935 454.316 246.985 453.92 247.062C453.823 247.076 453.727 247.096 453.633 247.121C453.166 247.264 454.181 247.068 453.815 247.14C452.379 247.424 450.907 247.493 449.472 247.814C444.949 248.759 440.973 251.278 438.342 254.867C436.73 256.924 435.724 259.345 435.427 261.885C435.255 263.33 435.676 264.783 436.603 265.946C437.53 267.11 438.894 267.897 440.416 268.147C441.2 268.331 442.029 268.224 442.732 267.848C443.435 267.472 443.958 266.857 444.192 266.128C444.401 265.39 444.294 264.604 443.894 263.939C443.495 263.274 442.834 262.782 442.054 262.57Z" fill="#211715"/>
<path d="M22.2758 265.124C22.2867 265.921 22.1365 266.713 21.8332 267.457C21.7337 267.687 21.6152 267.91 21.4788 268.124C21.4545 268.161 21.0579 268.743 21.223 268.496C21.3253 268.344 20.8661 268.681 21.127 268.575C21.1833 268.552 20.9249 268.642 20.8712 268.66C20.6254 268.758 20.3605 268.807 20.0934 268.804C19.7283 268.831 19.3611 268.821 18.9983 268.774C19.4269 268.841 18.1361 268.445 18.6043 268.654C15.8027 267.428 13.8851 264.874 11.8716 262.766C10.9032 261.753 9.93347 260.737 8.99066 259.701C8.56423 259.229 8.14378 258.752 7.7293 258.269C7.50415 258.004 7.76128 258.311 7.79327 258.351C7.6922 258.23 7.59114 258.101 7.4952 257.974C7.3468 257.778 7.19841 257.582 7.06281 257.379C7.03594 257.339 6.74427 256.88 6.7545 256.876C6.81463 256.849 7.02315 257.685 6.82358 256.947C6.66368 256.357 6.50761 255.771 6.39759 255.171C6.29663 254.67 6.2393 254.162 6.22617 253.652C6.20826 253.35 6.19802 253.05 6.20058 252.745C6.20058 252.554 6.21082 252.362 6.21849 252.171C6.21849 252.105 6.30037 251.547 6.23512 251.892C6.18267 252.175 6.35537 251.497 6.40654 251.367C6.13406 252.061 6.52424 251.3 6.69694 251.096C6.92669 250.82 7.18369 250.566 7.4645 250.336C7.65935 250.186 7.88971 250.082 8.13611 250.034C8.94606 249.928 9.76784 249.931 10.5769 250.042C10.6038 250.042 11.3266 250.195 11.553 250.253C11.7078 250.292 11.86 250.338 12.0136 250.384C12.5176 250.531 11.4801 250.114 12.1683 250.439C12.8757 250.808 13.7068 250.906 14.489 250.713C15.2712 250.52 15.9442 250.051 16.3682 249.403C16.7715 248.739 16.8821 247.953 16.6761 247.214C16.4701 246.475 15.964 245.841 15.2667 245.449C13.1431 244.477 10.7842 244.05 8.42906 244.213C7.0731 244.29 5.75445 244.661 4.57579 245.297C3.39714 245.933 2.39028 246.816 1.63361 247.878C-0.669059 250.81 -0.177822 255.269 0.936416 258.583C1.51705 260.014 2.37897 261.329 3.47703 262.459C4.62837 263.81 5.85902 265.1 7.08711 266.387C9.92963 269.369 12.8617 273.12 17.1472 274.27C18.508 274.655 19.9463 274.73 21.3441 274.491C22.7419 274.251 24.0595 273.703 25.1887 272.891C27.4786 271.054 28.3868 267.853 28.4163 265.128C28.447 261.408 22.3065 261.405 22.2758 265.128V265.124Z" fill="#211715"/>
<path d="M0.178055 259.956C1.09676 262.723 2.31549 265.394 3.815 267.926C5.93557 271.832 8.35685 275.587 11.0595 279.16C14.1381 283.226 17.6472 286.987 21.5328 290.386C25.5151 293.879 29.7955 297.278 32.5076 301.789C34.4533 305.027 39.7597 302.117 37.8088 298.872C35.0994 294.364 31.0377 290.798 27.04 287.312C23.2064 284.082 19.7256 280.499 16.6498 276.617C13.9048 273.029 11.4462 269.255 9.29408 265.325C8.50606 263.892 7.75897 262.435 7.07456 260.959C6.99074 260.804 6.92016 260.643 6.86348 260.477C6.75219 260.208 6.63705 259.938 6.53215 259.666C6.37097 259.251 6.22129 258.836 6.09848 258.411C5.06484 254.825 -0.860706 256.347 0.178055 259.947V259.956Z" fill="#211715"/>
<path d="M28.0696 238.743C24.416 235.853 18.3881 235.517 14.8356 238.808C10.6038 242.729 11.4814 248.562 13.6331 253.204C14.9947 255.812 16.5839 258.309 18.3843 260.67C19.8926 262.995 21.5533 265.23 23.3568 267.362C26.7507 271.14 33.1534 275.015 38.3242 271.848C42.2733 269.429 43.1521 264.938 42.5099 260.837C42.2891 260.101 41.7689 259.476 41.062 259.098C40.3551 258.721 39.5185 258.62 38.7335 258.819C37.9595 259.039 37.305 259.531 36.9058 260.193C36.5066 260.854 36.3933 261.636 36.5895 262.374C36.4014 261.17 36.61 262.924 36.6112 263.267C36.6112 263.579 36.5959 263.89 36.5703 264.199C36.5486 264.403 36.5549 264.387 36.5895 264.15C36.5549 264.35 36.5153 264.547 36.4616 264.745C36.2198 265.735 35.6288 267.262 34.0514 267.211C29.5305 267.069 26.4641 261.768 24.3482 258.713C22.7978 256.475 21.0861 254.278 19.7582 251.913C18.5278 250.02 17.8902 247.837 17.9186 245.618C17.9834 244.895 18.2194 244.196 18.6094 243.571C18.8323 243.198 19.132 242.87 19.4909 242.607C19.1224 242.858 20.316 242.311 19.6764 242.533C20.321 242.252 21.031 242.131 21.7393 242.181C22.4476 242.23 23.1306 242.449 23.7239 242.817C24.3103 243.34 25.0875 243.632 25.8955 243.632C26.7035 243.632 27.4807 243.34 28.067 242.817C28.6363 242.272 28.9553 241.538 28.9553 240.773C28.9553 240.009 28.6363 239.275 28.067 238.73L28.0696 238.743Z" fill="#211715"/>
<path d="M46.6611 236.171C43.2314 230.083 37.6103 221.259 28.8717 224.58C24.7921 226.131 22.1466 228.881 21.7231 233.067C21.4234 235.492 21.7753 237.949 22.7466 240.212C24.5478 244.016 26.6995 247.705 28.8269 251.352C30.1509 253.622 31.5044 255.882 32.9871 258.064C34.0871 259.893 35.5365 261.514 37.2624 262.847C41.4238 265.747 47.3033 266.148 51.1539 262.552C52.7836 261.009 53.854 259.021 54.2126 256.872C54.4695 254.58 54.1201 252.263 53.1956 250.129C51.9381 246.623 46.0048 248.127 47.2751 251.665C48.1386 254.074 49.0968 256.814 46.4948 258.743C44.6258 260.127 41.8293 259.162 40.2929 257.747C40.0921 257.563 39.9194 257.352 39.7364 257.153C39.4064 256.791 39.8042 257.236 39.8465 257.289C39.7121 257.119 39.5791 256.949 39.4499 256.777C38.9382 256.095 38.4521 255.392 37.9787 254.684C36.7455 252.831 35.5942 250.928 34.4697 249.016C32.4869 245.644 30.5756 242.223 28.7834 238.755C28.5493 238.303 28.3357 237.836 28.0939 237.386C27.8521 236.936 28.145 237.902 28.2103 237.65C28.1794 237.292 28.0976 236.94 27.9672 236.602C27.8244 235.686 27.7687 234.759 27.8009 233.833C27.7581 233.348 27.8298 232.86 28.011 232.404C28.1921 231.948 28.4782 231.536 28.8486 231.197C29.8722 230.333 31.1391 229.765 32.4971 229.563C32.1274 229.606 33.1981 229.643 32.5585 229.548C33.019 229.625 33.4694 229.749 33.9017 229.917C34.5383 230.175 35.124 230.532 35.6338 230.974C36.2028 231.475 36.7116 232.034 37.1511 232.639C37.8419 233.54 37.7625 233.349 38.2576 234.037C39.385 235.665 40.4188 237.349 41.3547 239.082C43.2058 242.37 48.5084 239.452 46.656 236.165L46.6611 236.171Z" fill="#211715"/>
<path d="M41.1244 228.496C37.7101 220.789 34.265 213.082 31.1053 205.276C29.9744 202.723 29.1127 200.073 28.5327 197.362C28.4092 196.68 28.3505 195.989 28.3574 195.297C28.3548 194.784 28.4324 194.274 28.5877 193.783C28.7719 193.363 28.8205 193.294 29.5957 192.94C30.2505 192.608 30.9934 192.462 31.7347 192.519C33.1 192.914 34.3049 193.692 35.1887 194.749C35.7605 195.279 35.0198 194.436 35.2501 194.81C35.4445 195.127 35.6876 195.424 35.8897 195.738C37.0769 197.553 38.0836 199.479 39.0776 201.397C42.0353 207.089 44.7205 212.909 47.3596 218.737C50.0754 224.736 52.7197 230.768 55.2232 236.849C55.4592 237.576 55.9821 238.191 56.6845 238.566C57.3869 238.941 58.2153 239.049 58.9996 238.867C59.7815 238.659 60.4449 238.169 60.8461 237.504C61.2474 236.839 61.3543 236.051 61.1436 235.313C56.0099 222.836 50.5667 210.366 44.3111 198.345C41.9598 193.828 39.368 188.58 33.7521 187.041C29.2043 185.795 23.6011 188.298 22.5214 192.782C21.6464 196.415 22.7593 200.318 23.999 203.762C27.2061 212.673 31.356 221.35 35.2027 230.031C35.4411 230.757 35.9645 231.369 36.6661 231.744C37.3678 232.119 38.195 232.228 38.9791 232.049C39.7616 231.842 40.4256 231.352 40.827 230.687C41.2284 230.021 41.3348 229.233 41.1232 228.495L41.1244 228.496Z" fill="#211715"/>
<path d="M56.8338 258.757C56.2281 256.701 55.5134 254.675 54.6923 252.686C54.1153 250.621 52.7345 248.835 50.8238 247.683C48.8792 246.767 46.7299 246.301 44.5554 246.326C43.9644 246.293 42.7836 246.279 42.5086 246.24C42.4971 246.24 41.5057 245.962 41.9969 246.186C41.6856 246.014 41.643 245.995 41.869 246.13C41.7109 245.995 41.5849 245.831 41.4993 245.648C41.1391 245.081 40.9434 244.436 40.9317 243.775C40.92 243.115 41.0928 242.464 41.4327 241.886C41.7615 241.061 41.3406 241.668 41.7692 241.356C41.4263 241.606 42.4932 241.046 42.396 241.085C43.3512 240.738 44.3394 240.476 45.3473 240.305C48.7139 239.58 52.142 239.137 55.5916 238.98C58.5851 238.86 62.1453 238.901 64.6181 240.606C67.1856 242.376 68.6989 246.13 69.6571 248.973C70.8079 251.946 71.3256 255.104 71.1807 258.265C70.8933 260.744 70.2921 263.181 69.3897 265.525C67.3368 271.597 66.0571 277.877 65.5775 284.233C65.3984 287.952 71.5389 287.943 71.718 284.233C71.7669 283.024 71.8865 281.818 72.0762 280.621C72.1478 280.192 73.0292 277.42 72.7018 277.129C72.5981 277.036 72.5738 277.764 72.6519 277.439C72.7005 277.239 72.7273 277.031 72.767 276.83C72.8796 276.27 73.0075 275.714 73.1393 275.159C73.7968 272.358 74.526 269.562 75.3895 266.81C75.708 265.795 76.157 264.82 76.4628 263.8C77.0057 261.85 77.3007 259.848 77.3416 257.833C77.3951 254.067 76.7211 250.324 75.3524 246.785C73.9094 242.758 71.7705 238.384 68.0248 235.818C64.8113 233.622 60.5232 233.119 56.656 233.169C52.664 233.288 48.6913 233.741 44.7844 234.521C42.5619 234.812 40.4171 235.493 38.461 236.528C36.6051 237.812 35.3541 239.726 34.9737 241.864C34.6735 243.127 34.6689 244.436 34.9603 245.7C35.2517 246.964 35.8321 248.154 36.6611 249.186C37.3711 250.084 38.2987 250.81 39.3667 251.303C40.4347 251.796 41.6123 252.042 42.8015 252.02C44.4083 252.125 47.3468 251.742 48.3868 253.244C48.867 254.185 49.2454 255.169 49.5164 256.181C50.0743 257.521 50.5392 258.893 50.9082 260.289C51.7922 263.913 57.7139 262.38 56.8287 258.753L56.8338 258.757Z" fill="#211715"/>
<path d="M277.901 211.664C288.617 215.894 299.136 220.549 309.486 225.521C314.434 227.898 319.345 230.338 324.238 232.819C326.76 234.095 329.252 235.432 331.807 236.643C334.464 237.716 337.005 239.026 339.396 240.555C339.984 241.075 340.76 241.364 341.567 241.364C342.374 241.364 343.15 241.075 343.738 240.555C344.309 240.011 344.629 239.277 344.629 238.512C344.629 237.747 344.309 237.013 343.738 236.469C341.296 234.767 338.673 233.31 335.911 232.119C333.175 230.857 330.521 229.441 327.837 228.082C322.778 225.519 317.701 222.988 312.585 220.53C301.758 215.33 290.741 210.517 279.533 206.091C278.748 205.891 277.911 205.991 277.204 206.369C276.497 206.747 275.977 207.372 275.757 208.109C275.561 208.847 275.675 209.628 276.074 210.29C276.473 210.952 277.127 211.444 277.901 211.664Z" fill="#211715"/>
<path d="M339.047 240.193C339.789 240.586 340.505 241.023 341.215 241.465C341.645 241.733 342.072 242.005 342.494 242.287C342.634 242.38 342.777 242.471 342.91 242.571C343.266 242.837 342.654 242.311 343.01 242.663C344.525 244.337 345.79 246.199 346.77 248.196C348.924 252.264 350.589 256.545 351.735 260.96C354.507 271.057 357.017 281.219 359.56 291.369C360.938 296.867 361.99 302.612 364.293 307.857C364.532 308.582 365.055 309.195 365.757 309.57C366.458 309.945 367.285 310.054 368.069 309.876C368.852 309.668 369.516 309.178 369.917 308.512C370.319 307.847 370.426 307.059 370.215 306.32C368.141 301.607 367.145 296.483 365.908 291.542C364.403 285.531 362.886 279.522 361.357 273.516C358.988 264.258 357.008 254.723 352.517 246.118C351.229 243.422 349.527 240.919 347.466 238.689C345.879 237.294 344.089 236.121 342.149 235.204C338.695 233.382 335.599 238.372 339.049 240.195L339.047 240.193Z" fill="#211715"/>
<path d="M317.478 359.054C319.589 366.26 323.696 372.976 327.513 379.475C329.177 382.567 331.062 385.549 333.155 388.401C335.532 391.402 338.344 394.075 341.509 396.341C352.804 404.467 370.771 408.985 382.992 400.188C392.877 393.074 396.49 381.575 399.814 370.817C403.221 359.792 406.444 348.716 409.597 337.626C412.349 327.949 415.377 318.233 417.4 308.39C417.589 307.652 417.472 306.874 417.074 306.213C416.675 305.553 416.025 305.06 415.255 304.834C408.717 302.485 401.896 300.751 395.18 298.918C387.377 296.787 379.556 294.721 371.715 292.719C370.93 292.52 370.093 292.62 369.386 292.998C368.679 293.376 368.159 294.001 367.938 294.737C366.545 304.122 362.693 313.11 360.083 322.226C359.06 325.822 364.976 327.356 366.005 323.762C368.613 314.647 372.465 305.659 373.859 296.275L370.083 298.293C377.921 300.3 385.742 302.366 393.547 304.491C400.263 306.325 407.084 308.059 413.623 310.408L411.479 306.854C409.822 314.9 407.403 322.842 405.18 330.761C402.125 341.642 398.969 352.497 395.713 363.325C392.878 372.718 390.596 383.037 384.2 390.943C380.675 395.299 375.621 398.729 369.683 399.174C362.872 399.684 355.585 397.602 349.684 394.501C346.218 392.693 343.081 390.376 340.391 387.638C337.861 384.842 335.698 381.769 333.948 378.486C330.004 371.791 325.576 364.955 323.399 357.521C322.35 353.94 316.424 355.461 317.477 359.058L317.478 359.054Z" fill="#211715"/>
<path d="M331.287 256.084C328.016 280.288 323.765 304.372 319.743 328.476C317.454 342.185 315.18 355.896 313.007 369.621C312.463 372.886 312.302 376.197 312.525 379.495C312.836 384.083 313.357 388.659 313.899 393.223C315.618 407.71 317.737 422.156 319.814 436.602C320.035 437.338 320.555 437.963 321.262 438.341C321.969 438.718 322.806 438.819 323.591 438.62C324.364 438.399 325.018 437.907 325.417 437.245C325.816 436.584 325.931 435.803 325.736 435.065C323.898 422.318 322.058 409.569 320.473 396.792C319.861 391.847 319.275 386.898 318.854 381.937C318.552 379.075 318.46 376.197 318.579 373.324C318.507 374.484 318.543 373.576 318.586 373.315C318.661 372.865 318.728 372.413 318.8 371.962C318.928 371.146 319.056 370.332 319.184 369.518C319.473 367.699 319.764 365.88 320.056 364.062C320.6 360.676 321.15 357.29 321.704 353.904C322.828 347.027 323.965 340.153 325.114 333.28C327.311 320.097 329.533 306.918 331.683 293.729C333.73 281.196 335.725 268.654 337.425 256.075C337.421 255.31 337.096 254.577 336.521 254.035C335.946 253.494 335.168 253.189 334.355 253.185C333.546 253.203 332.777 253.514 332.205 254.052C331.634 254.59 331.304 255.314 331.284 256.075L331.287 256.084Z" fill="#211715"/>
<path d="M122.771 240.941C126.277 238.377 130.702 236.78 134.584 234.8C138.871 232.614 143.172 230.454 147.486 228.318C156.161 224.046 164.938 219.967 173.857 216.167C174.555 215.777 175.063 215.143 175.269 214.403C175.475 213.664 175.363 212.877 174.958 212.214C174.534 211.566 173.861 211.097 173.079 210.903C172.297 210.71 171.466 210.808 170.759 211.177C161.66 215.051 152.711 219.22 143.867 223.58C139.451 225.759 135.054 227.972 130.677 230.218C126.519 232.341 122.184 234.107 118.429 236.853C117.857 237.397 117.536 238.131 117.536 238.896C117.536 239.661 117.857 240.396 118.429 240.94C119.015 241.464 119.792 241.756 120.6 241.756C121.408 241.756 122.185 241.465 122.771 240.941Z" fill="#211715"/>
<path d="M136.396 356.588C129.245 368.505 119.241 378.689 107.178 386.331C101.398 389.893 95.2155 392.198 88.2064 391.531C86.1429 391.248 84.154 390.603 82.3436 389.629C80.1319 388.417 78.0995 386.935 76.2991 385.223C67.3711 377.006 61.5121 366.022 55.6633 355.783C51.3023 348.149 47.6039 340.272 44.022 332.287C39.7045 322.646 35.3934 312.957 31.6861 303.093L30.2789 306.356C32.051 305.203 33.909 304.172 35.8385 303.27C39.1569 301.566 42.5112 299.922 45.8705 298.291C53.2288 294.716 60.6191 291.2 68.0414 287.742C70.3441 286.667 72.6365 285.59 74.9494 284.529L70.7432 283.495C78.7981 301.677 87.9723 319.402 98.2192 336.578C100.173 339.81 105.48 336.901 103.52 333.661C93.2743 316.484 84.1005 298.759 76.0458 280.577C75.3652 279.068 73.1751 278.929 71.8447 279.541C59.1045 285.404 46.3797 291.355 33.8979 297.691C31.5652 298.758 29.3199 299.987 27.1805 301.367C26.6082 301.7 26.1634 302.196 25.9105 302.783C25.6575 303.37 25.6094 304.018 25.7733 304.632C29.2043 313.758 33.1764 322.724 37.1421 331.655C40.9338 340.192 44.6898 348.784 49.3603 356.942C55.5648 367.789 61.6797 379.219 70.8034 388.211C74.7089 392.058 79.5266 395.62 85.1311 396.866C92.1197 398.42 99.4934 396.877 105.766 393.832C113.384 389.916 120.293 384.884 126.234 378.927C132.214 373.073 137.41 366.551 141.704 359.507C143.694 356.286 138.389 353.366 136.401 356.589L136.396 356.588Z" fill="#211715"/>
<path d="M92.8835 316.531C94.1627 312.405 96.0087 308.439 97.4888 304.375C98.3536 302.004 98.8602 299.537 99.4704 297.1C100.338 293.63 101.208 290.162 102.08 286.694C103.615 280.601 105.159 274.511 106.76 268.432C107.906 263.598 109.405 258.844 111.246 254.204C112.459 251.279 114.028 248.497 115.923 245.914C117.25 244.324 118.96 243.055 120.912 242.211C124.366 240.397 121.269 235.402 117.814 237.221C115.804 238.164 113.962 239.395 112.354 240.87C110.322 243.131 108.635 245.647 107.339 248.345C104.899 253.284 103.002 258.445 101.677 263.747C100.124 269.527 98.6452 275.333 97.1767 281.136C95.474 287.859 94.1192 294.75 92.0711 301.387C90.646 306.006 88.3983 310.376 86.963 314.994C85.8501 318.57 91.7743 320.098 92.8835 316.53V316.531Z" fill="#211715"/>
<path d="M231.014 317.775C224.009 303.168 218.064 288.085 212.4 272.98C205.827 255.452 199.415 237.698 195.025 219.563C193.588 213.625 192.475 207.642 191.379 201.644C191.075 199.971 189.106 199.426 187.603 199.626C184.768 200.003 181.934 202.283 179.744 203.855C175.956 206.582 172.358 209.537 168.975 212.702C165.756 215.594 162.847 218.777 160.289 222.205C159.275 223.622 157.704 225.717 158.208 227.488C158.82 228.833 159.76 230.025 160.95 230.967C164.485 234.496 168.218 237.887 172.048 241.132L171.568 237.631C169.995 239.774 168.572 241.353 166.76 243.531C164.957 245.469 163.31 247.531 161.833 249.7C160.24 252.364 162.997 255.373 164.406 257.621C171.723 269.301 179.254 280.87 186.738 292.459C191.999 300.606 197.265 308.751 202.535 316.894C204.582 320.067 209.9 317.166 207.837 313.977C198.967 300.266 190.11 286.548 181.264 272.822C177.905 267.596 174.56 262.362 171.229 257.12C170.22 255.525 169.212 253.928 168.227 252.319C167.933 251.837 167.638 251.362 167.357 250.874C167.021 250.292 167.069 249.931 167.262 250.815C167.328 251.116 167.366 252.631 167.046 252.762C167.136 252.726 167.29 252.378 167.343 252.309C167.641 251.91 167.935 251.509 168.238 251.115C169.226 249.854 169.853 249.112 170.869 247.891C172.887 245.465 175.003 243.084 176.866 240.546C177.206 239.994 177.343 239.351 177.256 238.718C177.17 238.085 176.863 237.497 176.385 237.044C173.173 234.323 170.066 231.478 167.035 228.579C165.914 227.508 164.846 226.404 163.774 225.293C163.633 225.147 164.135 225.918 163.875 225.394C164.609 226.876 163.519 228.605 164.259 227.213C164.609 226.568 164.999 225.943 165.428 225.342C166.337 224.042 167.349 222.808 168.456 221.651C169.832 220.15 171.278 218.706 172.763 217.302C175.765 214.452 178.94 211.768 182.272 209.264C183.633 208.243 185.05 207.289 186.515 206.405C187.137 206.038 187.786 205.732 188.424 205.396C188.598 205.305 188.968 205.22 188.168 205.485C188.321 205.454 188.468 205.403 188.606 205.334C188.799 205.249 189.01 205.202 189.223 205.197L185.447 203.179C186.373 208.255 187.289 213.324 188.447 218.36C190.494 227.271 193.111 236.031 195.969 244.732C201.768 262.403 208.227 279.873 215.345 297.141C218.603 305.063 221.988 312.947 225.707 320.689C226.121 321.347 226.795 321.825 227.581 322.019C228.367 322.213 229.202 322.108 229.907 321.726C230.595 321.327 231.094 320.693 231.299 319.957C231.504 319.22 231.4 318.438 231.008 317.772L231.014 317.775Z" fill="#211715"/>
<path d="M194.296 233.333C205.559 236.283 217.217 237.685 228.906 237.496C240.099 237.056 251.193 235.336 261.944 232.374C265.743 231.365 264.128 225.786 260.312 226.8C250.095 229.634 239.548 231.285 228.906 231.716C217.768 231.904 206.66 230.57 195.928 227.756C192.106 226.803 190.475 232.377 194.296 233.33V233.333Z" fill="#211715"/>
<path d="M237.974 313.443L242.315 317.53C249.836 308.442 257.605 299.527 265.235 290.521C275.213 278.743 285.281 267.021 295.052 255.09C296.435 253.404 297.866 251.993 296.575 249.678C295.18 247.526 293.551 245.515 291.714 243.68C289.936 241.673 288.118 239.699 286.304 237.722V241.809C289.871 238.808 293.583 235.964 297.132 232.944C298.227 232.012 299.744 230.935 300.144 229.531C300.642 227.784 299.133 225.751 298.155 224.338C293.259 217.26 286.369 210.991 279.438 205.689C276.728 203.615 273.399 200.759 269.733 200.486C269.061 200.49 268.41 200.699 267.876 201.082C267.342 201.464 266.954 202 266.771 202.607C265.065 208.038 263.614 213.539 261.966 218.984C259.481 227.206 256.662 235.327 253.6 243.376C247.407 259.652 240.57 275.721 233.346 291.616C230.286 298.351 227.159 305.059 223.891 311.706C223.503 312.373 223.401 313.154 223.606 313.89C223.811 314.625 224.307 315.259 224.993 315.661C225.697 316.041 226.533 316.146 227.318 315.952C228.104 315.758 228.777 315.281 229.193 314.624C235.783 301.214 241.9 287.589 247.762 273.886C254.843 257.337 261.642 240.617 266.977 223.486C268.978 217.063 270.675 210.56 272.693 204.141L269.733 206.263C268.655 206.182 269.163 206.191 269.488 206.263C270.128 206.398 269.662 206.315 269.532 206.25C270.061 206.51 270.587 206.758 271.098 207.053C271.7 207.402 272.286 207.776 272.862 208.166C273.565 208.638 274.123 209.04 274.472 209.305C277.698 211.763 280.777 214.387 283.696 217.163C285.203 218.591 286.668 220.055 288.091 221.557C289.339 222.882 290.724 224.447 291.598 225.56C292.525 226.748 293.363 227.996 294.108 229.293C294.158 229.421 294.221 229.545 294.294 229.663C293.807 229.133 294.622 227.182 294.485 227.407C294.366 227.602 295.108 226.826 294.567 227.271C294.026 227.717 293.543 228.214 293.016 228.667C289.405 231.764 285.604 234.659 281.962 237.724C281.401 238.273 281.087 239.006 281.087 239.768C281.087 240.53 281.401 241.263 281.962 241.811C283.528 243.519 285.099 245.224 286.642 246.95C287.438 247.84 288.227 248.733 289.003 249.639C289.657 250.356 290.264 251.109 290.821 251.895C290.947 252.144 291.1 252.379 291.279 252.597C290.718 252.166 291.48 250.04 291.384 250.124C291.288 250.208 291.232 250.353 291.146 250.448C290.756 250.886 290.411 251.37 290.041 251.825L289.828 252.084C289.515 252.473 290.34 251.475 290.004 251.871L289.589 252.376C289.226 252.816 288.861 253.258 288.495 253.7C287.617 254.759 286.736 255.816 285.853 256.87C283.611 259.549 281.365 262.224 279.113 264.893C268.158 277.898 257.169 290.878 246.148 303.832C243.426 307.038 240.657 310.214 237.979 313.45C237.427 314.003 237.119 314.734 237.119 315.493C237.119 316.253 237.427 316.983 237.979 317.537C238.557 318.074 239.337 318.374 240.15 318.374C240.962 318.374 241.742 318.074 242.321 317.537C242.874 316.984 243.183 316.253 243.183 315.493C243.183 314.734 242.874 314.003 242.321 313.45C241.742 312.913 240.962 312.612 240.15 312.612C239.337 312.612 238.557 312.913 237.979 313.45L237.974 313.443Z" fill="#211715"/>
<path d="M225.713 320.693C226.852 322.931 227.788 325.256 228.51 327.642C228.987 329.214 229.229 330.841 229.227 332.476C229.272 334.391 229.21 336.306 229.04 338.215C228.622 342.964 228.068 347.704 227.534 352.441C225.581 369.774 223.462 387.091 221.179 404.391C219.852 414.5 218.474 424.606 216.958 434.692C216.768 435.43 216.884 436.208 217.283 436.869C217.681 437.529 218.331 438.022 219.102 438.246C219.887 438.445 220.723 438.345 221.43 437.967C222.137 437.589 222.657 436.965 222.878 436.228C225.723 417.365 228.158 398.446 230.481 379.52C232.144 366.002 233.858 352.473 235.122 338.916C235.317 336.879 235.402 334.835 235.378 332.79C235.3 327.424 233.367 322.602 231.018 317.775C230.603 317.118 229.93 316.641 229.144 316.447C228.358 316.253 227.523 316.358 226.818 316.739C226.129 317.137 225.63 317.771 225.425 318.508C225.22 319.244 225.324 320.027 225.717 320.693H225.713Z" fill="#211715"/>
<path d="M222.961 340.844C223.024 338.988 222.449 337.163 221.323 335.639C220.196 334.115 218.577 332.974 216.707 332.384C212.556 331.116 207.508 332.481 205.305 336.155C204.414 337.647 203.945 339.329 203.943 341.04C203.941 342.752 204.406 344.435 205.294 345.929C206.467 347.621 208.19 348.91 210.206 349.602C212.223 350.295 214.423 350.354 216.478 349.771C220.669 348.619 222.928 344.778 222.956 340.84C222.956 340.074 222.633 339.338 222.057 338.796C221.481 338.254 220.7 337.95 219.886 337.95C219.072 337.95 218.291 338.254 217.715 338.796C217.139 339.338 216.816 340.074 216.816 340.84C216.816 341.062 216.807 341.283 216.786 341.505C216.776 341.619 216.752 341.737 216.748 341.852C216.781 340.913 216.841 341.29 216.78 341.555C216.724 341.796 216.674 342.037 216.602 342.278C216.509 342.587 216.03 343.449 216.549 342.537C216.421 342.763 216.313 342.998 216.172 343.219C216.101 343.33 216.023 343.436 215.947 343.546C215.649 343.983 216.465 342.991 216.089 343.374C215.929 343.536 215.775 343.7 215.601 343.849C215.359 344.054 215.089 344.072 215.775 343.737C215.602 343.822 215.446 343.947 215.276 344.037C215.148 344.107 214.99 344.158 214.866 344.232C215.526 343.831 215.313 344.064 215.004 344.156C214.696 344.249 214.323 344.277 214.003 344.375C214.749 344.142 214.401 344.326 214.074 344.341C213.874 344.349 213.671 344.351 213.469 344.341C213.267 344.33 213.068 344.319 212.866 344.31C212.525 344.276 212.61 344.289 213.112 344.348C212.991 344.33 212.871 344.308 212.752 344.285C212.414 344.213 212.082 344.123 211.755 344.015C211.173 343.836 212.415 344.343 211.895 344.065C211.804 344.017 211.709 343.976 211.618 343.928C211.49 343.856 211.362 343.782 211.234 343.701C210.961 343.528 210.874 343.278 211.383 343.822C211.167 343.592 210.901 343.392 210.678 343.162C210.304 342.776 211.119 343.764 210.823 343.335C210.748 343.228 210.67 343.123 210.601 343.014C210.463 342.797 210.357 342.569 210.234 342.346C210.737 343.259 210.325 342.527 210.234 342.237C210.155 341.974 210.129 341.699 210.051 341.439C210.329 342.373 210.109 341.885 210.095 341.546C210.085 341.272 210.09 340.998 210.111 340.724C210.12 340.576 210.151 340.425 210.153 340.276C210.138 341.137 210.084 340.721 210.137 340.46C210.203 340.127 210.292 339.799 210.405 339.478C210.453 339.343 210.517 339.212 210.563 339.077C210.289 339.891 210.38 339.479 210.503 339.257C210.64 339.01 210.83 338.789 210.967 338.545C210.602 339.198 210.645 338.922 210.857 338.698C210.957 338.594 211.06 338.493 211.168 338.398C211.241 338.333 211.318 338.278 211.392 338.21C211.763 337.887 210.715 338.635 211.384 338.239C211.512 338.161 211.654 338.087 211.792 338.019C212.12 337.86 212.319 337.962 211.65 338.06C211.978 338.013 212.313 337.849 212.642 337.781L212.819 337.748C213.147 337.695 213.06 337.702 212.556 337.769C212.753 337.77 212.949 337.754 213.143 337.722C213.352 337.714 213.559 337.714 213.769 337.722C213.904 337.722 214.04 337.736 214.175 337.747C214.518 337.78 214.439 337.767 213.94 337.708C214.34 337.822 214.747 337.914 215.158 337.984C215.502 338.093 215.606 338.315 215.038 337.922C215.174 337.998 215.314 338.066 215.459 338.126C215.586 338.197 215.714 338.279 215.842 338.355C216.282 338.609 215.228 337.843 215.8 338.333C215.906 338.424 216.009 338.521 216.107 338.62C216.628 339.148 215.798 338.156 216.074 338.552C216.254 338.813 216.415 339.074 216.568 339.349C216.824 339.817 216.3 338.644 216.477 339.145C216.536 339.312 216.598 339.476 216.65 339.647C216.742 339.959 216.825 340.995 216.756 339.916C216.776 340.226 216.811 340.531 216.813 340.841C216.813 341.608 217.137 342.343 217.713 342.885C218.288 343.427 219.069 343.731 219.884 343.731C220.698 343.731 221.479 343.427 222.055 342.885C222.63 342.343 222.954 341.608 222.954 340.841L222.961 340.844Z" fill="#211715"/>
<path d="M135.354 438.663H322.59C326.542 438.663 326.548 432.883 322.59 432.883H135.354C131.403 432.883 131.397 438.663 135.354 438.663Z" fill="#211715"/>
<path d="M137.993 436.5C139.823 423.802 141.659 411.103 143.263 398.379C143.903 393.321 144.509 388.258 144.971 383.182C145.354 380.123 145.5 377.041 145.41 373.962C145.242 371.374 144.653 368.776 144.245 366.213C143.71 362.86 143.17 359.506 142.625 356.152C141.521 349.351 140.404 342.552 139.272 335.754C137.108 322.706 134.915 309.664 132.784 296.618C130.76 284.224 128.76 271.822 127.06 259.384C127.035 258.625 126.703 257.904 126.133 257.367C125.563 256.83 124.796 256.518 123.99 256.494C123.177 256.498 122.399 256.804 121.824 257.345C121.249 257.886 120.924 258.619 120.92 259.384C124.19 283.299 128.331 307.108 132.294 330.927C134.52 344.31 136.734 357.696 138.854 371.095C139.001 372.02 139.149 372.944 139.291 373.87C139.22 373.402 139.23 373.237 139.254 373.743C139.28 374.289 139.304 374.826 139.303 375.378C139.303 376.917 139.203 378.457 139.093 379.992C138.772 384.468 138.265 388.935 137.734 393.392C136.083 407.278 134.068 421.124 132.072 434.969C131.884 435.707 132 436.485 132.399 437.145C132.797 437.805 133.446 438.299 134.216 438.525C135.001 438.723 135.838 438.622 136.545 438.244C137.251 437.866 137.772 437.242 137.993 436.505V436.5Z" fill="#211715"/>
<path d="M384.765 267.229C385.35 242.303 386.231 197.239 386.825 171.995C386.849 170.937 387.094 169.895 387.548 168.927C388.001 167.959 388.652 167.085 389.465 166.355C390.278 165.625 391.236 165.053 392.284 164.672C393.333 164.291 394.45 164.109 395.574 164.135C410.73 164.486 431.218 164.964 444.283 165.267C446.546 165.319 448.695 166.215 450.257 167.757C451.82 169.299 452.669 171.361 452.617 173.492C451.934 202.039 450.961 242.965 450.315 268.495C450.262 270.623 449.314 272.645 447.679 274.117C446.045 275.588 443.857 276.389 441.595 276.343C428.008 276.077 406.694 275.709 393.128 275.445C392.005 275.424 390.898 275.194 389.87 274.769C388.842 274.344 387.913 273.733 387.136 272.97C386.359 272.206 385.75 271.307 385.343 270.322C384.937 269.337 384.74 268.286 384.765 267.229Z" fill="white"/>
<path d="M407.369 241.228C407.359 241.721 407.349 242.213 407.342 242.706C407.354 243.516 407.662 244.29 408.201 244.863C408.741 245.436 409.469 245.764 410.232 245.776L422.646 246.032C423.409 246.019 424.137 245.692 424.677 245.119C425.216 244.546 425.524 243.772 425.536 242.961L425.562 241.484C425.551 240.673 425.243 239.9 424.703 239.326C424.164 238.753 423.435 238.426 422.672 238.414C418.535 238.328 414.397 238.243 410.259 238.158C409.492 238.158 408.757 238.481 408.215 239.057C407.673 239.633 407.369 240.414 407.369 241.228C407.369 242.042 407.673 242.823 408.215 243.399C408.757 243.975 409.492 244.298 410.259 244.298C414.396 244.384 418.534 244.469 422.672 244.554L419.782 241.484L419.756 242.961L422.646 239.891L410.232 239.635L413.122 242.706C413.129 242.213 413.139 241.721 413.149 241.228C413.149 240.825 413.074 240.426 412.929 240.053C412.783 239.681 412.57 239.342 412.302 239.057C412.034 238.772 411.715 238.546 411.364 238.392C411.014 238.237 410.638 238.158 410.259 238.158C409.879 238.158 409.503 238.237 409.153 238.392C408.802 238.546 408.483 238.772 408.215 239.057C407.947 239.342 407.734 239.681 407.589 240.053C407.443 240.426 407.369 240.825 407.369 241.228Z" fill="#211715"/>
<path d="M407.183 251.543C407.173 252.034 407.164 252.527 407.157 253.019C407.168 253.83 407.475 254.604 408.015 255.177C408.555 255.751 409.284 256.078 410.047 256.089L422.46 256.345C423.223 256.333 423.952 256.006 424.492 255.433C425.031 254.86 425.339 254.086 425.35 253.275L425.377 251.799C425.366 250.988 425.058 250.214 424.518 249.641C423.978 249.068 423.25 248.74 422.487 248.728C418.349 248.643 414.211 248.558 410.073 248.473C409.307 248.473 408.572 248.796 408.03 249.372C407.488 249.948 407.183 250.729 407.183 251.543C407.183 252.357 407.488 253.138 408.03 253.714C408.572 254.29 409.307 254.613 410.073 254.613C414.211 254.698 418.349 254.784 422.487 254.869L419.597 251.799L419.57 253.275L422.46 250.205L410.047 249.949L412.937 253.019C412.944 252.527 412.953 252.034 412.963 251.543C412.963 251.14 412.888 250.74 412.743 250.368C412.598 249.995 412.385 249.657 412.117 249.372C411.848 249.087 411.53 248.861 411.179 248.706C410.828 248.552 410.453 248.473 410.073 248.473C409.694 248.473 409.318 248.552 408.967 248.706C408.617 248.861 408.298 249.087 408.03 249.372C407.761 249.657 407.548 249.995 407.403 250.368C407.258 250.74 407.183 251.14 407.183 251.543Z" fill="#211715"/>
<path d="M410.419 235.36L422.832 235.616C423.599 235.616 424.334 235.292 424.876 234.717C425.418 234.141 425.722 233.36 425.722 232.546C425.722 231.731 425.418 230.95 424.876 230.375C424.334 229.799 423.599 229.475 422.832 229.475L410.419 229.22C409.652 229.22 408.917 229.543 408.375 230.119C407.833 230.695 407.529 231.476 407.529 232.29C407.529 233.104 407.833 233.885 408.375 234.461C408.917 235.037 409.652 235.36 410.419 235.36Z" fill="#211715"/>
<path d="M410.585 226.14L422.999 226.396C423.765 226.396 424.5 226.073 425.042 225.497C425.584 224.921 425.889 224.14 425.889 223.326C425.889 222.512 425.584 221.731 425.042 221.155C424.5 220.579 423.765 220.256 422.999 220.256L410.585 220C409.818 220 409.083 220.323 408.541 220.899C407.999 221.475 407.695 222.256 407.695 223.07C407.695 223.884 407.999 224.665 408.541 225.241C409.083 225.817 409.818 226.14 410.585 226.14Z" fill="#211715"/>
<path d="M409.89 264.736L422.305 264.992C423.071 264.992 423.807 264.668 424.349 264.092C424.891 263.517 425.195 262.736 425.195 261.921C425.195 261.107 424.891 260.326 424.349 259.75C423.807 259.175 423.071 258.851 422.305 258.851L409.89 258.595C409.124 258.595 408.388 258.919 407.846 259.495C407.304 260.07 407 260.851 407 261.666C407 262.48 407.304 263.261 407.846 263.837C408.388 264.412 409.124 264.736 409.89 264.736Z" fill="#211715"/>
<path d="M387.835 267.229C388.317 246.673 388.759 226.117 389.159 205.56C389.368 195.65 389.582 185.742 389.799 175.835C389.843 173.955 389.537 171.72 390.395 169.979C390.808 169.159 391.442 168.456 392.234 167.939C393.027 167.423 393.949 167.111 394.91 167.036C397.756 166.958 400.605 167.016 403.445 167.208L412.92 167.429L431.916 167.871L440.231 168.063C442.354 168.113 444.86 167.794 446.766 168.824C447.631 169.296 448.345 169.979 448.832 170.8C449.32 171.621 449.563 172.551 449.537 173.492C449.537 176.099 449.409 178.712 449.35 181.319L448.951 198.005C448.413 220.477 447.867 242.949 447.313 265.422C447.262 267.487 447.544 269.771 446.091 271.492C445.469 272.182 444.678 272.72 443.787 273.06C442.896 273.399 441.93 273.53 440.973 273.441C435.355 273.351 429.736 273.229 424.119 273.127L405.501 272.788L397.186 272.633C394.993 272.591 392.379 272.939 390.44 271.799C389.62 271.317 388.947 270.642 388.489 269.841C388.031 269.039 387.803 268.139 387.828 267.229C387.815 263.509 381.674 263.503 381.687 267.229C381.685 270.117 382.877 272.892 385.012 274.965C387.147 277.039 390.056 278.247 393.123 278.335C399.102 278.588 405.111 278.562 411.095 278.67C417.626 278.789 424.157 278.909 430.687 279.031C433.622 279.085 436.559 279.14 439.496 279.196C442.479 279.253 445.343 279.142 447.939 277.568C450.499 276.045 452.332 273.649 453.056 270.881C453.481 268.286 453.635 265.657 453.517 263.034C453.655 257.5 453.791 251.967 453.926 246.434C454.23 233.997 454.53 221.559 454.828 209.119C455.112 197.258 455.717 185.36 455.68 173.495C455.683 170.612 454.495 167.84 452.367 165.766C450.239 163.692 447.337 162.478 444.275 162.381C438.286 162.104 432.265 162.101 426.27 161.962L406.03 161.492L396.749 161.277C393.703 161.054 390.673 161.873 388.217 163.584C385.811 165.35 384.247 167.942 383.867 170.792C383.649 173.141 383.564 175.499 383.611 177.857C383.494 182.995 383.381 188.13 383.272 193.264C382.791 215.68 382.315 238.096 381.842 260.512C381.791 262.752 381.739 264.992 381.687 267.233C381.604 270.95 387.745 270.949 387.835 267.229Z" fill="#211715"/>
<path d="M399.89 190.36L412.304 190.616C413.07 190.616 413.805 190.292 414.347 189.717C414.889 189.141 415.194 188.36 415.194 187.546C415.194 186.731 414.889 185.951 414.347 185.375C413.805 184.799 413.07 184.476 412.304 184.476L399.89 184.22C399.124 184.22 398.388 184.543 397.846 185.119C397.304 185.695 397 186.476 397 187.29C397 188.104 397.304 188.885 397.846 189.461C398.388 190.037 399.124 190.36 399.89 190.36Z" fill="#211715"/>
<path d="M400.056 181.141L412.47 181.396C413.236 181.396 413.972 181.073 414.514 180.497C415.056 179.921 415.36 179.14 415.36 178.326C415.36 177.512 415.056 176.731 414.514 176.155C413.972 175.579 413.236 175.256 412.47 175.256L400.056 175C399.29 175 398.555 175.324 398.013 175.899C397.471 176.475 397.166 177.256 397.166 178.07C397.166 178.885 397.471 179.666 398.013 180.241C398.555 180.817 399.29 181.141 400.056 181.141Z" fill="#211715"/>
<path d="M399.89 212.36L412.304 212.616C413.07 212.616 413.805 212.292 414.347 211.717C414.889 211.141 415.194 210.36 415.194 209.546C415.194 208.731 414.889 207.951 414.347 207.375C413.805 206.799 413.07 206.476 412.304 206.476L399.89 206.22C399.124 206.22 398.388 206.543 397.846 207.119C397.304 207.695 397 208.476 397 209.29C397 210.104 397.304 210.885 397.846 211.461C398.388 212.037 399.124 212.36 399.89 212.36Z" fill="#211715"/>
<path d="M400.056 203.141L412.47 203.396C413.236 203.396 413.972 203.073 414.514 202.497C415.056 201.921 415.36 201.14 415.36 200.326C415.36 199.512 415.056 198.731 414.514 198.155C413.972 197.579 413.236 197.256 412.47 197.256L400.056 197C399.29 197 398.555 197.324 398.013 197.899C397.471 198.475 397.166 199.256 397.166 200.07C397.166 200.885 397.471 201.666 398.013 202.241C398.555 202.817 399.29 203.141 400.056 203.141Z" fill="#211715"/>
<path d="M423.89 212.36L436.304 212.616C437.07 212.616 437.805 212.292 438.347 211.717C438.889 211.141 439.194 210.36 439.194 209.546C439.194 208.731 438.889 207.951 438.347 207.375C437.805 206.799 437.07 206.476 436.304 206.476L423.89 206.22C423.124 206.22 422.388 206.543 421.846 207.119C421.304 207.695 421 208.476 421 209.29C421 210.104 421.304 210.885 421.846 211.461C422.388 212.037 423.124 212.36 423.89 212.36Z" fill="#211715"/>
<path d="M424.056 203.141L436.47 203.396C437.236 203.396 437.972 203.073 438.514 202.497C439.056 201.921 439.36 201.14 439.36 200.326C439.36 199.512 439.056 198.731 438.514 198.155C437.972 197.579 437.236 197.256 436.47 197.256L424.056 197C423.29 197 422.555 197.324 422.013 197.899C421.471 198.475 421.166 199.256 421.166 200.07C421.166 200.885 421.471 201.666 422.013 202.241C422.555 202.817 423.29 203.141 424.056 203.141Z" fill="#211715"/>
<path d="M423.89 190.36L436.304 190.616C437.07 190.616 437.805 190.292 438.347 189.717C438.889 189.141 439.194 188.36 439.194 187.546C439.194 186.731 438.889 185.951 438.347 185.375C437.805 184.799 437.07 184.476 436.304 184.476L423.89 184.22C423.124 184.22 422.388 184.543 421.846 185.119C421.304 185.695 421 186.476 421 187.29C421 188.104 421.304 188.885 421.846 189.461C422.388 190.037 423.124 190.36 423.89 190.36Z" fill="#211715"/>
<path d="M424.056 181.141L436.47 181.396C437.236 181.396 437.972 181.073 438.514 180.497C439.056 179.921 439.36 179.14 439.36 178.326C439.36 177.512 439.056 176.731 438.514 176.155C437.972 175.579 437.236 175.256 436.47 175.256L424.056 175C423.29 175 422.555 175.324 422.013 175.899C421.471 176.475 421.166 177.256 421.166 178.07C421.166 178.885 421.471 179.666 422.013 180.241C422.555 180.817 423.29 181.141 424.056 181.141Z" fill="#211715"/>
<path d="M216.821 159.038C220.859 161.001 225.356 161.978 229.899 161.881C234.553 161.852 239.29 161.004 243.022 158.269C243.593 157.725 243.914 156.99 243.914 156.225C243.914 155.46 243.593 154.726 243.022 154.182C242.436 153.657 241.659 153.365 240.851 153.365C240.042 153.365 239.265 153.657 238.68 154.182C239.588 153.516 238.801 154.079 238.568 154.219C238.302 154.38 238.027 154.528 237.747 154.667C237.554 154.762 236.596 155.14 237.357 154.866C236.981 155 236.609 155.138 236.225 155.253C234.045 155.907 231.759 156.195 229.473 156.102C227.292 156.158 225.117 155.882 223.029 155.286C222.615 155.165 222.21 155.029 221.802 154.897C221.674 154.855 221.547 154.79 221.406 154.752C222.162 154.961 221.623 154.844 221.424 154.752C220.912 154.528 220.416 154.292 219.919 154.047C219.212 153.676 218.381 153.577 217.598 153.771C216.815 153.964 216.142 154.434 215.72 155.084C215.317 155.747 215.208 156.533 215.414 157.272C215.619 158.011 216.125 158.644 216.821 159.037V159.038Z" fill="#211715"/>
<path d="M228.51 129.828C229.121 131.905 229.61 134.012 229.976 136.14L229.866 135.371C229.909 135.66 229.918 135.952 229.891 136.242L230 135.474C229.98 135.607 229.946 135.738 229.899 135.865L230.208 135.175C230.167 135.263 230.118 135.347 230.061 135.427L230.541 134.841C230.476 134.917 230.403 134.985 230.322 135.045L230.944 134.593C230.774 134.693 230.596 134.781 230.413 134.858L231.146 134.567C230.859 134.68 230.558 134.761 230.251 134.808L231.067 134.704C230.788 134.735 230.506 134.735 230.228 134.704L231.044 134.808C230.727 134.766 230.416 134.693 230.098 134.654C229.299 134.477 228.458 134.58 227.733 134.944C227.385 135.135 227.08 135.39 226.836 135.692C226.592 135.994 226.414 136.339 226.312 136.706C226.21 137.073 226.185 137.456 226.24 137.832C226.295 138.208 226.428 138.571 226.632 138.898C226.827 139.224 227.09 139.51 227.405 139.737C227.72 139.965 228.081 140.13 228.466 140.223C229.154 140.311 229.823 140.476 230.523 140.505C231.561 140.511 232.586 140.284 233.512 139.841C234.092 139.598 234.606 139.234 235.016 138.778C235.427 138.321 235.723 137.784 235.882 137.205C236.092 136.255 236.081 135.273 235.85 134.327C235.485 132.293 234.987 130.279 234.431 128.285C234.215 127.546 233.695 126.918 232.987 126.539C232.279 126.16 231.44 126.062 230.654 126.266C229.869 126.47 229.202 126.959 228.8 127.625C228.398 128.292 228.293 129.082 228.51 129.821V129.828Z" fill="#211715"/>
<path d="M192.708 112.05C191.589 115.475 192.324 123.352 199.211 124.022C208.32 123.971 208.805 114.446 205.735 109.968C203.228 106.301 195.845 104.777 192.708 112.05Z" fill="#211715"/>
<path d="M265.658 112.05C266.779 115.475 266.048 123.352 259.157 124.022C250.047 123.971 249.562 114.446 252.633 109.968C255.139 106.301 262.521 104.777 265.658 112.05Z" fill="#211715"/>
<path d="M396.369 241.228C396.359 241.721 396.349 242.213 396.342 242.706C396.354 243.516 396.662 244.29 397.201 244.863C397.741 245.436 398.469 245.764 399.232 245.776L411.646 246.032C412.409 246.019 413.137 245.692 413.677 245.119C414.216 244.546 414.524 243.772 414.536 242.961L414.562 241.484C414.551 240.673 414.243 239.9 413.703 239.326C413.164 238.753 412.435 238.426 411.672 238.414C407.535 238.328 403.397 238.243 399.259 238.158C398.492 238.158 397.757 238.481 397.215 239.057C396.673 239.633 396.369 240.414 396.369 241.228C396.369 242.042 396.673 242.823 397.215 243.399C397.757 243.975 398.492 244.298 399.259 244.298C403.396 244.384 407.534 244.469 411.672 244.554L408.782 241.484L408.756 242.961L411.646 239.891L399.232 239.635L402.122 242.706C402.129 242.213 402.139 241.721 402.149 241.228C402.149 240.825 402.074 240.426 401.929 240.053C401.783 239.681 401.57 239.342 401.302 239.057C401.034 238.772 400.715 238.546 400.364 238.392C400.014 238.237 399.638 238.158 399.259 238.158C398.879 238.158 398.503 238.237 398.153 238.392C397.802 238.546 397.483 238.772 397.215 239.057C396.947 239.342 396.734 239.681 396.589 240.053C396.443 240.426 396.369 240.825 396.369 241.228Z" fill="#211715"/>
<path d="M396.183 251.543C396.173 252.034 396.164 252.527 396.157 253.019C396.168 253.83 396.475 254.604 397.015 255.177C397.555 255.751 398.284 256.078 399.047 256.089L411.46 256.345C412.223 256.333 412.952 256.006 413.492 255.433C414.031 254.86 414.339 254.086 414.35 253.275L414.377 251.799C414.366 250.988 414.058 250.214 413.518 249.641C412.978 249.068 412.25 248.74 411.487 248.728C407.349 248.643 403.211 248.558 399.073 248.473C398.307 248.473 397.572 248.796 397.03 249.372C396.488 249.948 396.183 250.729 396.183 251.543C396.183 252.357 396.488 253.138 397.03 253.714C397.572 254.29 398.307 254.613 399.073 254.613C403.211 254.698 407.349 254.784 411.487 254.869L408.597 251.799L408.57 253.275L411.46 250.205L399.047 249.949L401.937 253.019C401.944 252.527 401.953 252.034 401.963 251.543C401.963 251.14 401.888 250.74 401.743 250.368C401.598 249.995 401.385 249.657 401.117 249.372C400.848 249.087 400.53 248.861 400.179 248.706C399.828 248.552 399.453 248.473 399.073 248.473C398.694 248.473 398.318 248.552 397.967 248.706C397.617 248.861 397.298 249.087 397.03 249.372C396.761 249.657 396.548 249.995 396.403 250.368C396.258 250.74 396.183 251.14 396.183 251.543Z" fill="#211715"/>
<path d="M399.419 235.36L411.832 235.616C412.599 235.616 413.334 235.292 413.876 234.717C414.418 234.141 414.722 233.36 414.722 232.546C414.722 231.731 414.418 230.95 413.876 230.375C413.334 229.799 412.599 229.475 411.832 229.475L399.419 229.22C398.652 229.22 397.917 229.543 397.375 230.119C396.833 230.695 396.529 231.476 396.529 232.29C396.529 233.104 396.833 233.885 397.375 234.461C397.917 235.037 398.652 235.36 399.419 235.36Z" fill="#211715"/>
<path d="M399.585 226.14L411.999 226.396C412.765 226.396 413.5 226.073 414.042 225.497C414.584 224.921 414.889 224.14 414.889 223.326C414.889 222.512 414.584 221.731 414.042 221.155C413.5 220.579 412.765 220.256 411.999 220.256L399.585 220C398.818 220 398.083 220.323 397.541 220.899C396.999 221.475 396.695 222.256 396.695 223.07C396.695 223.884 396.999 224.665 397.541 225.241C398.083 225.817 398.818 226.14 399.585 226.14Z" fill="#211715"/>
<path d="M398.89 264.736L411.305 264.992C412.071 264.992 412.807 264.668 413.349 264.092C413.891 263.517 414.195 262.736 414.195 261.921C414.195 261.107 413.891 260.326 413.349 259.75C412.807 259.175 412.071 258.851 411.305 258.851L398.89 258.595C398.124 258.595 397.388 258.919 396.846 259.495C396.304 260.07 396 260.851 396 261.666C396 262.48 396.304 263.261 396.846 263.837C397.388 264.412 398.124 264.736 398.89 264.736Z" fill="#211715"/>
<path d="M420.369 241.228C420.359 241.721 420.349 242.213 420.342 242.706C420.354 243.516 420.662 244.29 421.201 244.863C421.741 245.436 422.469 245.764 423.232 245.776L435.646 246.032C436.409 246.019 437.137 245.692 437.677 245.119C438.216 244.546 438.524 243.772 438.536 242.961L438.562 241.484C438.551 240.673 438.243 239.9 437.703 239.326C437.164 238.753 436.435 238.426 435.672 238.414C431.535 238.328 427.397 238.243 423.259 238.158C422.492 238.158 421.757 238.481 421.215 239.057C420.673 239.633 420.369 240.414 420.369 241.228C420.369 242.042 420.673 242.823 421.215 243.399C421.757 243.975 422.492 244.298 423.259 244.298C427.396 244.384 431.534 244.469 435.672 244.554L432.782 241.484L432.756 242.961L435.646 239.891L423.232 239.635L426.122 242.706C426.129 242.213 426.139 241.721 426.149 241.228C426.149 240.825 426.074 240.426 425.929 240.053C425.783 239.681 425.57 239.342 425.302 239.057C425.034 238.772 424.715 238.546 424.364 238.392C424.014 238.237 423.638 238.158 423.259 238.158C422.879 238.158 422.503 238.237 422.153 238.392C421.802 238.546 421.483 238.772 421.215 239.057C420.947 239.342 420.734 239.681 420.589 240.053C420.443 240.426 420.369 240.825 420.369 241.228Z" fill="#211715"/>
<path d="M420.183 251.543C420.173 252.034 420.164 252.527 420.157 253.019C420.168 253.83 420.475 254.604 421.015 255.177C421.555 255.751 422.284 256.078 423.047 256.089L435.46 256.345C436.223 256.333 436.952 256.006 437.492 255.433C438.031 254.86 438.339 254.086 438.35 253.275L438.377 251.799C438.366 250.988 438.058 250.214 437.518 249.641C436.978 249.068 436.25 248.74 435.487 248.728C431.349 248.643 427.211 248.558 423.073 248.473C422.307 248.473 421.572 248.796 421.03 249.372C420.488 249.948 420.183 250.729 420.183 251.543C420.183 252.357 420.488 253.138 421.03 253.714C421.572 254.29 422.307 254.613 423.073 254.613C427.211 254.698 431.349 254.784 435.487 254.869L432.597 251.799L432.57 253.275L435.46 250.205L423.047 249.949L425.937 253.019C425.944 252.527 425.953 252.034 425.963 251.543C425.963 251.14 425.888 250.74 425.743 250.368C425.598 249.995 425.385 249.657 425.117 249.372C424.848 249.087 424.53 248.861 424.179 248.706C423.828 248.552 423.453 248.473 423.073 248.473C422.694 248.473 422.318 248.552 421.967 248.706C421.617 248.861 421.298 249.087 421.03 249.372C420.761 249.657 420.548 249.995 420.403 250.368C420.258 250.74 420.183 251.14 420.183 251.543Z" fill="#211715"/>
<path d="M423.419 235.36L435.832 235.616C436.599 235.616 437.334 235.292 437.876 234.717C438.418 234.141 438.722 233.36 438.722 232.546C438.722 231.731 438.418 230.95 437.876 230.375C437.334 229.799 436.599 229.475 435.832 229.475L423.419 229.22C422.652 229.22 421.917 229.543 421.375 230.119C420.833 230.695 420.529 231.476 420.529 232.29C420.529 233.104 420.833 233.885 421.375 234.461C421.917 235.037 422.652 235.36 423.419 235.36Z" fill="#211715"/>
<path d="M423.585 226.14L435.999 226.396C436.765 226.396 437.5 226.073 438.042 225.497C438.584 224.921 438.889 224.14 438.889 223.326C438.889 222.512 438.584 221.731 438.042 221.155C437.5 220.579 436.765 220.256 435.999 220.256L423.585 220C422.818 220 422.083 220.323 421.541 220.899C420.999 221.475 420.695 222.256 420.695 223.07C420.695 223.884 420.999 224.665 421.541 225.241C422.083 225.817 422.818 226.14 423.585 226.14Z" fill="#211715"/>
<path d="M422.89 264.736L435.305 264.992C436.071 264.992 436.807 264.668 437.349 264.092C437.891 263.517 438.195 262.736 438.195 261.921C438.195 261.107 437.891 260.326 437.349 259.75C436.807 259.175 436.071 258.851 435.305 258.851L422.89 258.595C422.124 258.595 421.388 258.919 420.846 259.495C420.304 260.07 420 260.851 420 261.666C420 262.48 420.304 263.261 420.846 263.837C421.388 264.412 422.124 264.736 422.89 264.736Z" fill="#211715"/>
</g>
<defs>
<clipPath id="clip0_101_112">
<rect width="467" height="439" fill="white"/>
</clipPath>
</defs>
</svg>
