<svg width="224" height="205" viewBox="0 0 224 205" fill="none" xmlns="http://www.w3.org/2000/svg">
<path d="M154.965 77.1471C155.682 76.5018 156.534 75.991 157.471 75.6442C158.408 75.2975 159.412 75.1217 160.425 75.127C161.709 75.0449 162.994 75.2786 164.142 75.8031C165.291 76.3277 166.26 77.1235 166.947 78.1057C169.26 81.4242 169.435 87.6806 168.144 91.5996C167.23 94.3755 165.718 98.6258 161.773 101.773C160.905 102.477 159.885 103.01 158.777 103.341C157.669 103.671 156.497 103.791 155.335 103.693L154.706 103.62C154.173 105.511 153.502 107.369 152.699 109.181C151.224 113.271 142.752 127.684 131.492 133.678C131.594 136.385 131.978 139.077 132.638 141.72C132.894 142.618 133.345 143.462 133.965 144.203C134.585 144.944 135.361 145.566 136.25 146.034C138.906 147.63 144.239 148.837 148.525 149.509C148.439 149.588 148.398 149.628 148.398 149.628C140.432 157.401 125.468 161.71 109.968 162.29C94.1441 162.794 77.3748 158.865 70.1202 151.904C73.82 150.914 78.2974 149.934 81.3552 148.258C83.3204 146.975 84.7014 145.092 85.2405 142.959C85.4277 140.394 85.4492 137.822 85.3047 135.255C79.9309 132.826 75.1482 129.455 71.2366 125.339C65.9322 119.992 61.8975 113.722 59.381 106.915C58.1598 107.192 56.8847 107.215 55.6524 106.981C54.4202 106.747 53.2631 106.263 52.269 105.566C48.0675 102.702 46.2057 98.569 45.0513 95.8649C43.4296 92.0456 43.0718 85.7956 45.0976 82.327C45.6983 81.3001 46.5969 80.4396 47.6974 79.8372C48.7979 79.2348 50.0591 78.9132 51.3465 78.9066C52.3559 78.8312 53.3718 78.937 54.3356 79.2178C55.2994 79.4987 56.1919 79.949 56.9616 80.5428C56.9616 80.5428 50.2622 33.2267 106.325 33.2267C155.35 33.2267 154.965 77.1471 154.965 77.1471Z" fill="white"/>
<path d="M160.777 41.3156C158.065 34.7096 153.836 28.9335 147.88 24.961L141.103 19.0262C133.339 10.4956 121.124 6.14882 103.935 6.06412C81.5835 6.15633 65.486 15.7377 58.5488 24.3809L60.1039 25.7233C45.4686 38.1 40.8605 59.4983 49.0567 79.3001C49.7987 79.0822 50.5679 78.9486 51.3465 78.9023C52.3559 78.8269 53.3719 78.9327 54.3357 79.2135C55.2995 79.4944 56.192 79.9447 56.9616 80.5385L64.5408 74.3357C70.1666 68.2241 80.1616 58.9633 87.2949 55.2673C88.1272 54.8384 89.2507 55.3424 89.6513 56.6173C89.9782 57.6128 90.0991 58.6541 90.008 59.6892C89.964 59.9826 90.0108 60.2813 90.143 60.5524C90.2753 60.8234 90.488 61.0562 90.7576 61.2252C91.0272 61.3942 91.3433 61.4928 91.6711 61.5101C91.9989 61.5273 92.3256 61.4627 92.6152 61.3232C97.7013 58.5354 106.738 52.9781 113.198 50.2558L122.981 50.9967C126.319 52.109 129.425 53.7237 132.165 55.7723C138.271 60.1545 144.205 66.2501 146.957 71.8557L154.966 77.1396C155.684 76.4945 156.535 75.9839 157.472 75.6371C158.409 75.2904 159.413 75.1145 160.426 75.1195C161.306 75.1098 162.182 75.2138 163.03 75.4283C165.584 64.601 165.12 51.8973 160.777 41.3156Z" fill="#85807F"/>
<path d="M9.87567 205.242C11.0646 199.459 12.6398 193.373 14.7775 186.43C18.5986 177.92 22.9939 171.989 30.2485 167.471C39.8654 161.483 49.984 157.097 69.6352 151.414C76.5985 158.681 93.7779 162.805 109.968 162.289C125.882 161.694 141.236 157.167 149.02 148.993C160.947 151.331 173.224 154.017 183.822 159.58C188.121 161.67 192.012 164.381 195.342 167.603C198.6 170.89 201.395 174.528 203.665 178.432C208.588 186.826 210.963 195.949 212.529 205.238L9.87567 205.242Z" fill="white"/>
<path d="M70.6005 152.192C71.7466 148.606 73.6433 145.251 76.1883 142.308C78.2317 139.762 80.5819 137.428 83.1956 135.349C86.1973 133.322 89.7648 132.087 93.4997 131.783C99.0725 131.122 104.705 130.97 110.312 131.332C111.469 131.377 112.563 131.822 113.366 132.575C114.169 133.328 114.621 134.33 114.626 135.375C114.568 136.285 114.166 137.148 113.486 137.822C112.806 138.496 111.89 138.938 110.892 139.075C108.335 139.432 104.805 139.534 100.556 140.23C95.6932 141.027 95.5625 141.434 93.1633 143.447L92.941 143.747C97.7179 143.659 103.403 143.91 105.926 144.949C106.877 145.338 110.325 147.148 111.18 147.682C115.209 150.195 117.307 152.025 118.56 154.37C119.043 155.668 118.954 157.085 118.312 158.326C117.816 159.234 116.142 160.429 113.504 159.681C114.244 160.286 114.789 161.06 115.082 161.921C115.375 162.782 115.405 163.698 115.168 164.573C114.845 165.518 114.204 166.349 113.334 166.951C112.463 167.552 111.407 167.894 110.311 167.93C111.381 168.842 110.795 171.28 109.962 172.334C109.092 173.436 106.62 173.525 105.326 173.108C104.237 172.705 103.114 172.382 101.968 172.143C101.896 172.479 101.855 172.672 101.855 172.672C101.601 173.866 101.082 176.64 100.658 177.791C99.462 181.153 97.7464 184.876 94.3367 186.681C92.6367 187.39 90.8979 188.022 89.127 188.572C87.654 189.194 86.345 192.236 85.5603 194.371C85.5525 194.392 85.5355 194.41 85.5133 194.42C85.4911 194.431 85.4653 194.432 85.4414 194.426C78.0442 192.234 69.3784 189.558 62.4424 187.542C62.3292 187.509 62.2246 187.456 62.1347 187.385C62.0449 187.315 61.9716 187.229 61.9193 187.133C61.8671 187.037 61.8369 186.932 61.8305 186.825C61.8242 186.717 61.8418 186.61 61.8824 186.509C63.0202 183.626 63.7597 182.072 64.4635 180.159C65.4504 176.965 66.2441 173.725 66.8413 170.453C68.2418 161.882 68.6734 158.514 69.9217 154.221C70.1488 153.504 70.3735 152.827 70.6005 152.192Z" fill="white"/>
<path d="M51.7127 78.3876C46.2438 64.8315 46.2771 49.1471 54.377 36.4187C56.4629 33.1355 59.0723 30.1465 62.1214 27.5472C64.794 25.2655 60.7542 21.6306 58.0863 23.908C45.6291 34.5488 40.6334 50.7136 42.588 65.8459C43.1897 70.5941 44.4055 75.2625 46.2105 79.7558C46.4283 80.4041 46.914 80.9522 47.5672 81.2867C48.2204 81.6212 48.9912 81.7164 49.7201 81.5528C50.4463 81.3666 51.0622 80.9303 51.4349 80.3382C51.8077 79.746 51.9075 79.0455 51.7127 78.3876Z" fill="#211715"/>
<path d="M146.443 27.1869C158.38 35.2521 161.999 50.3747 161.724 63.0977C161.648 66.9293 161.184 70.7465 160.338 74.5019C160.155 75.1595 160.261 75.8552 160.632 76.4446C161.003 77.034 161.612 77.4718 162.332 77.6671C163.061 77.8422 163.838 77.752 164.494 77.4159C165.15 77.0798 165.634 76.5247 165.841 75.87C169.129 61.395 167.874 44.5344 158.761 31.8618C156.24 28.3425 153.044 25.2564 149.323 22.7479C148.668 22.4075 147.892 22.3136 147.161 22.4864C146.43 22.6592 145.805 23.0849 145.42 23.671C145.055 24.2638 144.958 24.9606 145.149 25.6162C145.34 26.2719 145.803 26.836 146.443 27.1912V27.1869Z" fill="#211715"/>
<path d="M58.9791 78.7232C57.3043 77.4481 55.2516 76.6438 53.0752 76.4098C50.8987 76.1757 48.6939 76.5223 46.7336 77.4065C45.2961 78.1222 44.06 79.1259 43.1205 80.3404C42.1809 81.5548 41.5631 82.9476 41.3146 84.4114C40.6523 87.7721 40.7588 91.2196 41.6277 94.5419C42.4966 97.8641 44.1096 100.991 46.3674 103.731C49.5845 107.623 54.0274 110.378 59.6104 109.521C60.3368 109.335 60.9529 108.898 61.3257 108.306C61.6985 107.714 61.7981 107.013 61.603 106.355C61.3875 105.706 60.9023 105.156 60.2484 104.821C59.5946 104.486 58.8226 104.392 58.0934 104.557C54.5113 105.112 51.5783 101.793 49.9792 99.3603C48.2839 96.8771 47.1734 94.1058 46.7169 91.2189C46.3603 88.6134 46.2866 85.3217 47.9415 83.0486C48.3053 82.55 47.8345 83.1204 48.2197 82.743C48.2661 82.6969 48.8141 82.2358 48.5597 82.4213C49.121 82.0336 49.7707 81.763 50.4619 81.629C51.2227 81.4331 52.0232 81.398 52.8014 81.5265C53.5796 81.655 54.3144 81.9436 54.9488 82.3699C55.4938 82.8353 56.2158 83.0947 56.9663 83.0947C57.7169 83.0947 58.4389 82.8353 58.9839 82.3699C59.5138 81.8848 59.8108 81.2312 59.8108 80.5503C59.8108 79.8694 59.5138 79.2158 58.9839 78.7307L58.9791 78.7232Z" fill="#211715"/>
<path d="M156.983 78.9666C157.573 78.4589 158.288 78.0841 159.069 77.8727C159.851 77.6612 160.676 77.619 161.479 77.7497C162.065 77.7995 162.631 77.9628 163.14 78.2286C163.649 78.4944 164.088 78.8562 164.428 79.2894C164.146 78.9677 164.361 79.2025 164.482 79.4041C164.657 79.6936 164.854 79.9638 165.004 80.2619C165.318 80.9463 165.554 81.6576 165.709 82.3849C166.064 83.977 166.184 85.6044 166.066 87.2249C165.857 90.0174 165.031 92.744 163.636 95.244C162.021 98.2023 159.408 101.463 155.34 101.116C154.585 101.12 153.862 101.393 153.328 101.875C152.794 102.356 152.492 103.008 152.486 103.689C152.502 104.367 152.808 105.013 153.339 105.493C153.871 105.973 154.588 106.248 155.34 106.262C164.095 107 169.081 98.3975 171.002 91.9566C171.999 88.4379 172.087 84.7598 171.26 81.2054C171.016 79.7382 170.441 78.3318 169.569 77.0735C168.697 75.8152 167.548 74.7319 166.193 73.8907C164.111 72.8082 161.695 72.3627 159.309 72.6209C156.922 72.8791 154.692 73.8271 152.952 75.3232C150.31 77.6317 154.347 81.2698 156.988 78.9624L156.983 78.9666Z" fill="#211715"/>
<path d="M152.744 99.6595C152.369 101.594 151.847 103.502 151.183 105.372C150.67 106.857 150.232 107.861 149.788 108.923C149.719 109.085 149.649 109.245 149.581 109.41C149.379 109.898 149.57 109.445 149.542 109.505C149.316 109.962 149.089 110.419 148.848 110.871C148.297 111.909 147.702 112.927 147.082 113.933C143.859 119.367 139.644 124.272 134.613 128.442C131.926 130.7 128.704 132.374 125.191 133.337C121.653 134.208 123.154 139.174 126.708 138.299C134.163 136.465 140.196 131.392 144.898 126.063C149.015 121.522 152.399 116.478 154.949 111.082C155.114 110.718 155.272 110.352 155.415 109.981C155.128 110.731 155.721 109.281 155.821 109.041C155.992 108.635 156.151 108.224 156.304 107.813C157.151 105.601 157.801 103.332 158.25 101.028C158.429 100.37 158.322 99.6761 157.951 99.0875C157.58 98.499 156.974 98.0606 156.256 97.8624C155.527 97.6858 154.749 97.7753 154.092 98.1116C153.435 98.4479 152.951 99.0039 152.744 99.6595Z" fill="#211715"/>
<path d="M55.5124 104.244C59.4238 117.462 69.036 130.445 82.6702 136.941C85.9146 138.487 88.8024 134.046 85.5496 132.496C73.1662 126.599 64.5657 114.874 61.0145 102.876C60.0634 99.6788 54.5624 101.035 55.5124 104.244Z" fill="#211715"/>
<path d="M103.244 116.285C103.601 116.101 103.949 115.921 104.314 115.757C104.538 115.682 104.756 115.591 104.963 115.483C104.505 115.805 104.546 115.638 104.886 115.522C105.024 115.475 105.164 115.43 105.303 115.387C105.998 115.175 106.709 115.006 107.43 114.883C107.668 114.841 107.914 114.807 108.156 114.776C107.726 114.84 108.09 114.783 108.32 114.761C108.857 114.709 109.395 114.673 109.934 114.653C110.908 114.616 111.884 114.64 112.855 114.726C113.171 114.755 113.33 114.795 112.92 114.726C113.135 114.762 113.352 114.791 113.568 114.834C113.893 114.893 114.215 114.961 114.535 115.042C114.855 115.122 115.141 115.212 115.442 115.306C115.972 115.474 115.285 115.306 115.258 115.229C115.379 115.291 115.505 115.344 115.636 115.388C115.996 115.548 116.341 115.735 116.668 115.947C117.322 116.288 118.099 116.383 118.83 116.21C119.562 116.037 120.188 115.61 120.572 115.023C120.934 114.43 121.029 113.734 120.839 113.079C120.648 112.424 120.186 111.859 119.548 111.502C116.867 109.763 113.128 109.401 109.934 109.509C106.579 109.563 103.291 110.365 100.364 111.845C100.041 112.016 99.7576 112.242 99.5311 112.512C99.3045 112.781 99.139 113.088 99.0439 113.415C98.9489 113.742 98.9262 114.082 98.9771 114.417C99.028 114.752 99.1516 115.075 99.3407 115.366C99.5299 115.658 99.7809 115.914 100.079 116.118C100.378 116.322 100.718 116.472 101.081 116.557C101.443 116.643 101.821 116.664 102.192 116.618C102.564 116.572 102.921 116.46 103.245 116.29L103.244 116.285Z" fill="#211715"/>
<path d="M107.671 93.8545C107.915 94.5793 108.147 95.3095 108.356 96.0407C108.607 96.8064 108.805 97.5852 108.951 98.3728L108.848 97.6887C108.869 97.8449 108.873 98.0026 108.859 98.1594L108.96 97.4753C108.946 97.5712 108.92 97.6654 108.883 97.7563L109.17 97.1419C109.138 97.2051 109.098 97.2651 109.052 97.3209L109.499 96.7998C109.465 96.8362 109.428 96.8692 109.387 96.8985L109.963 96.4964C109.813 96.5888 109.654 96.6692 109.488 96.7366L110.169 96.4771C109.969 96.5542 109.759 96.6089 109.544 96.6401L110.302 96.5489C110.082 96.5725 109.86 96.5725 109.64 96.5489L110.399 96.6412C109.961 96.5875 109.527 96.5168 109.091 96.4793C108.716 96.4784 108.344 96.5443 107.997 96.6731C107.651 96.8019 107.335 96.991 107.07 97.2298C106.535 97.7124 106.234 98.3669 106.234 99.0494C106.234 99.7318 106.535 100.386 107.07 100.869C107.627 101.323 108.341 101.588 109.091 101.619L109.21 101.63L108.451 101.539C108.986 101.636 109.528 101.694 110.073 101.712C110.948 101.687 111.804 101.474 112.57 101.092C113.037 100.871 113.448 100.563 113.773 100.188C114.098 99.8128 114.33 99.3792 114.454 98.9164C114.617 98.14 114.588 97.3406 114.367 96.5757C114.046 95.1969 113.631 93.833 113.178 92.4852C112.969 91.844 112.503 91.2959 111.87 90.9477C111.381 90.6893 110.816 90.5686 110.25 90.6009C109.684 90.6332 109.141 90.8171 108.691 91.129C108.241 91.4409 107.905 91.8667 107.725 92.352C107.544 92.8373 107.529 93.36 107.68 93.8534L107.671 93.8545Z" fill="#211715"/>
<path d="M81.8248 82.3302C81.1115 84.7363 81.8771 90.1885 86.8919 90.4791C93.4926 90.2143 93.5627 83.5879 91.2076 80.5557C89.2792 78.0746 83.8828 77.2007 81.8248 82.3302Z" fill="#211715"/>
<path d="M134.698 80.4988C135.611 82.8481 135.315 88.3379 130.34 88.9758C123.736 89.1688 123.103 82.5672 125.193 79.3805C126.904 76.7707 132.21 75.5269 134.698 80.4988Z" fill="#211715"/>
<path d="M80.5123 67.9989C80.0541 68.4351 79.5549 68.8348 79.0202 69.1933L79.5968 68.7902C78.4119 69.6664 77.1098 70.4052 75.7211 70.9893L76.4035 70.7298C76.2703 70.7812 76.1337 70.8253 75.9945 70.8617C75.2823 71.048 74.6737 71.469 74.2896 72.0411C73.9078 72.6304 73.8012 73.3322 73.9931 73.9924C74.1851 74.6525 74.66 75.2169 75.3133 75.5613C75.9809 75.9019 76.7692 75.995 77.5115 75.8207C78.1815 75.6327 78.826 75.3773 79.4328 75.0595C80.0201 74.7678 80.5872 74.4429 81.1412 74.1041C81.8878 73.6473 82.6083 73.1552 83.3121 72.6459C83.7537 72.3398 84.1669 72.0016 84.5474 71.6348C85.0688 71.143 85.3659 70.4923 85.3796 69.812C85.3764 69.1298 85.0778 68.4757 84.5474 67.9892C84.0123 67.5067 83.2865 67.2356 82.5298 67.2356C81.7731 67.2356 81.0474 67.5067 80.5123 67.9892V67.9989Z" fill="#211715"/>
<path d="M70.0121 149.242C68.973 149.525 67.9327 149.806 66.9091 150.132C66.207 150.336 65.6046 150.753 65.2042 151.312C64.9983 151.598 64.8813 151.928 64.8653 152.269C64.78 152.609 64.7977 152.964 64.9165 153.295C65.1169 153.94 65.5853 154.491 66.2243 154.833C66.5524 155.007 66.9163 155.12 67.294 155.165C67.6718 155.209 68.0556 155.185 68.4225 155.092C69.4461 154.771 70.4864 154.484 71.5255 154.202C72.2365 154.014 72.8442 153.593 73.2304 153.023C73.4363 152.737 73.5533 152.407 73.5692 152.066C73.6546 151.726 73.6369 151.372 73.5181 151.04C73.3177 150.395 72.8494 149.844 72.2103 149.502C71.5438 149.158 70.7542 149.065 70.0121 149.242Z" fill="#211715"/>
<path d="M149.246 147.021C147.02 146.678 144.817 146.226 142.647 145.665C141.597 145.389 140.565 145.073 139.549 144.712C140.005 144.874 139.549 144.712 139.358 144.632C139.166 144.551 138.951 144.459 138.752 144.367C138.387 144.2 138.033 144.014 137.691 143.811C137.498 143.697 137.311 143.574 137.125 143.452C137.65 143.797 137.033 143.366 136.968 143.314C136.787 143.169 136.611 143.018 136.446 142.861C136.398 142.816 135.881 142.267 136.258 142.709C136.108 142.531 135.97 142.344 135.844 142.151C135.813 142.102 135.452 141.446 135.687 141.946C135.494 141.477 135.348 140.993 135.253 140.499C135.125 139.975 135.011 139.449 134.91 138.92C134.861 138.659 134.817 138.398 134.771 138.137C134.739 138.017 134.721 137.894 134.716 137.771C134.566 136.572 134.456 135.372 134.376 134.168C134.376 133.485 134.075 132.831 133.54 132.348C133.005 131.866 132.28 131.595 131.523 131.595C130.766 131.595 130.04 131.866 129.505 132.348C128.97 132.831 128.669 133.485 128.669 134.168C128.807 136.756 129.168 139.33 129.75 141.867C130.347 144.318 131.954 146.472 134.245 147.894C136.151 149.051 138.256 149.915 140.475 150.45C142.855 151.097 145.277 151.609 147.727 151.983C148.456 152.148 149.228 152.054 149.882 151.719C150.536 151.384 151.021 150.835 151.237 150.186C151.429 149.528 151.327 148.829 150.955 148.237C150.583 147.645 149.969 147.208 149.244 147.02L149.246 147.021Z" fill="#211715"/>
<path d="M122.221 53.4821C126.91 55.3053 131.157 57.9401 134.722 61.2374C138.777 64.6258 142.091 68.6701 144.492 73.1606C144.878 73.7463 145.503 74.1716 146.234 74.3444C146.964 74.5171 147.741 74.4235 148.395 74.0837C149.035 73.7284 149.499 73.1643 149.69 72.5087C149.88 71.8531 149.783 71.1565 149.419 70.5636C146.721 65.5679 143 61.0778 138.45 57.3303C136.153 55.3159 133.672 53.4791 131.034 51.8394C128.747 50.4897 126.3 49.3749 123.738 48.5155C123.007 48.3393 122.228 48.4302 121.571 48.7684C120.914 49.1066 120.431 49.665 120.227 50.3222C120.044 50.9798 120.149 51.6759 120.52 52.2655C120.891 52.8551 121.501 53.2928 122.221 53.4874V53.4821Z" fill="#211715"/>
<path d="M66.5595 76.1628C72.0574 69.9541 78.3643 64.3652 85.3439 59.5165C86.1096 59.0115 86.8895 58.5226 87.6932 58.0669C87.931 57.9318 88.5694 57.7141 88.7382 57.4964C89.9973 55.8785 86.5816 58.1559 86.8729 57.252C86.8265 57.3935 87.0429 57.7742 87.0821 57.9693C87.2711 58.8893 87.0405 59.8253 87.2676 60.741C87.4075 61.3284 87.6804 61.8835 88.0691 62.3715C88.4577 62.8595 88.9539 63.2699 89.5265 63.577C91.8258 64.7629 93.8612 63.6842 95.8276 62.5691C97.5943 61.5698 99.3479 60.5523 101.11 59.5455C105.457 56.9436 109.979 54.5856 114.648 52.4849C115.296 52.1361 115.767 51.5717 115.958 50.9131C116.15 50.2545 116.047 49.5545 115.671 48.9637C115.278 48.3859 114.652 47.9673 113.925 47.7954C113.197 47.6234 112.424 47.7112 111.767 48.0405C107.638 49.8831 103.635 51.9465 99.7783 54.2197C97.876 55.2984 95.9821 56.3942 94.0835 57.4793C93.3059 57.9232 92.5284 58.366 91.7449 58.8003C91.676 58.8378 91.1814 59.1005 91.185 59.1091C91.6478 59.1263 92.1083 59.1779 92.5617 59.2635C92.9184 59.4039 92.6425 59.8339 92.8815 59.5273C93.0004 59.3664 92.9017 58.8678 92.891 58.6555C92.784 56.4039 92.0481 53.7544 89.4801 52.8441C87.1855 52.0303 85.2417 53.3202 83.4263 54.4524C79.6635 56.8787 76.1249 59.5759 72.8452 62.5177C69.2154 65.6847 65.7747 69.0233 62.5375 72.5194C62.0211 73.0107 61.7333 73.6619 61.7333 74.3389C61.7333 75.0159 62.0211 75.6671 62.5375 76.1585C63.0759 76.6378 63.802 76.9065 64.5586 76.9065C65.3152 76.9065 66.0413 76.6378 66.5797 76.1585L66.5595 76.1628Z" fill="#211715"/>
<path d="M61.0122 25.6836C62.2798 24.1948 63.6755 22.7984 65.1864 21.5073C66.9629 19.9954 68.8761 18.6196 70.9061 17.3943C75.7187 14.4967 81.0008 12.2903 86.5638 10.8537C98.9175 7.6274 113.216 7.62633 125.294 11.8616C130.666 13.747 135.413 16.8405 139.085 20.8479C139.623 21.3258 140.348 21.5937 141.103 21.5937C141.858 21.5937 142.583 21.3258 143.12 20.8479C143.641 20.3583 143.931 19.7064 143.931 19.0283C143.931 18.3503 143.641 17.6984 143.12 17.2088C134.902 8.27395 122.387 4.56728 109.909 3.70736C95.8573 2.74236 81.3148 5.36501 69.313 12.1929C64.182 15.0396 59.6946 18.7363 56.0878 23.0878C55.711 23.6781 55.6072 24.3784 55.7988 25.0372C55.9904 25.696 56.462 26.2603 57.1114 26.6079C57.7685 26.9374 58.5413 27.0254 59.2686 26.8534C59.9959 26.6813 60.6214 26.2627 61.0145 25.6847L61.0122 25.6836Z" fill="#211715"/>
<path d="M12.6268 205.923C13.2482 202.921 13.9456 199.931 14.7192 196.953C15.4691 193.633 16.4056 190.35 17.525 187.116C19.4197 182.245 22.3877 177.77 26.2502 173.96C29.7309 170.824 33.6951 168.157 38.0202 166.042C42.1805 163.851 46.496 161.909 50.9387 160.229C57.7415 157.631 64.7667 155.504 71.8025 153.487C75.2895 152.488 73.7999 147.517 70.2855 148.524C58.6498 151.861 46.9393 155.52 36.2952 160.995C31.7403 163.193 27.4979 165.882 23.6608 169.001C19.2526 172.979 15.7533 177.699 13.3615 182.893C11.7565 186.48 10.5115 190.19 9.64146 193.979C8.69986 197.481 7.86091 201.007 7.12459 204.555C6.9438 205.212 7.04971 205.907 7.42049 206.496C7.79127 207.085 8.39861 207.523 9.11716 207.72C9.84658 207.895 10.6231 207.805 11.2794 207.469C11.9358 207.133 12.4197 206.578 12.6268 205.923Z" fill="#211715"/>
<path d="M145.145 150.868C157.552 153.277 170.301 155.693 181.48 161.342C186.728 163.863 191.385 167.278 195.194 171.397C199.134 175.862 202.257 180.867 204.444 186.221C206.974 192.605 208.762 199.209 209.779 205.926C209.985 206.582 210.469 207.138 211.126 207.475C211.783 207.811 212.56 207.9 213.29 207.723C214.009 207.528 214.617 207.09 214.988 206.5C215.359 205.911 215.465 205.216 215.282 204.558C213.196 192.295 209.441 180.048 201.118 169.954C197.297 165.271 192.497 161.308 186.987 158.289C181.214 155.171 175.053 152.682 168.63 150.873C161.438 148.783 154.043 147.335 146.662 145.904C143.081 145.21 141.55 150.17 145.145 150.868Z" fill="#211715"/>
<path d="M115.116 164.527C127.666 163.347 141.487 160.023 150.411 151.446C152.922 149.031 148.894 145.384 146.376 147.807C138.529 155.355 126.164 158.341 115.116 159.387C114.366 159.405 113.652 159.682 113.121 160.161C112.59 160.639 112.283 161.283 112.263 161.96C112.268 162.641 112.57 163.293 113.104 163.774C113.638 164.256 114.361 164.528 115.116 164.533V164.527Z" fill="#211715"/>
<path d="M87.2367 146.616C90.5692 146.311 93.9215 146.218 97.2685 146.338C98.9072 146.364 100.542 146.483 102.164 146.695C102.868 146.802 103.549 146.955 104.239 147.115C104.404 147.161 104.568 147.21 104.73 147.264C104.438 147.145 104.407 147.135 104.64 147.233C104.895 147.34 105.145 147.467 105.395 147.589C108.496 148.983 111.359 150.774 113.894 152.905C114.781 153.704 116.001 154.835 116.023 155.951C116.019 156.307 115.956 156.66 115.838 156.999C115.687 157.499 116.008 156.908 115.783 157.133C115.727 157.2 115.647 157.249 115.557 157.272C115.229 157.355 114.883 157.355 114.555 157.272C110.974 156.572 109.443 161.532 113.037 162.235C117.658 163.139 121.269 160.771 121.695 156.544C122.052 152.955 119.031 149.952 116.154 147.837C113.549 145.905 110.714 144.24 107.702 142.871C104.781 141.768 101.642 141.212 98.4753 141.238C94.7282 141.046 90.9701 141.123 87.2367 141.47C86.4866 141.489 85.7729 141.766 85.2423 142.244C84.7117 142.723 84.4043 143.367 84.3834 144.043C84.3887 144.724 84.691 145.376 85.2249 145.857C85.7589 146.339 86.4816 146.612 87.2367 146.616Z" fill="#211715"/>
<path d="M94.1072 155.475C96.8925 155.445 99.6592 155.888 102.263 156.78C102.17 156.748 103.255 157.145 102.778 156.962C103.061 157.069 103.341 157.184 103.621 157.3C104.208 157.542 104.79 157.792 105.366 158.051C106.579 158.603 107.771 159.194 108.933 159.836C109.438 160.117 109.938 160.408 110.426 160.715C110.504 160.765 111.124 161.175 110.891 161.013C110.658 160.851 111.201 161.247 111.259 161.293C111.61 161.543 111.907 161.85 112.134 162.198C112.305 162.463 112.419 162.753 112.472 163.056C112.484 163.187 112.465 163.8 112.482 163.68C112.518 163.426 112.342 164.109 112.348 164.135C112.281 164.311 112.313 164.249 112.445 163.95C112.398 164.039 112.347 164.127 112.291 164.212C112.244 164.273 111.83 164.791 112.054 164.556C112.277 164.321 111.741 164.814 111.673 164.868C111.526 164.982 111.544 164.971 111.729 164.833C111.61 164.904 111.498 164.97 111.372 165.031C111.043 165.186 110.688 165.295 110.321 165.352C109.571 165.371 108.857 165.648 108.326 166.126C107.796 166.605 107.488 167.249 107.468 167.926C107.473 168.607 107.775 169.259 108.309 169.74C108.843 170.222 109.566 170.495 110.321 170.499C113.736 170.193 117.023 168.42 117.93 165.253C118.963 161.646 116.86 158.618 113.749 156.568C108.085 152.692 101.218 150.511 94.1108 150.332C90.4383 150.316 90.4336 155.462 94.1108 155.478L94.1072 155.475Z" fill="#211715"/>
<path d="M96.0107 164.919C96.1165 164.931 96.5754 164.985 96.0333 164.919L96.4185 164.969C96.7145 165.008 97.0129 165.051 97.3066 165.097C97.9319 165.195 98.5537 165.312 99.1695 165.442C99.7426 165.568 100.31 165.711 100.872 165.871C101.157 165.954 101.438 166.041 101.717 166.135C101.836 166.175 101.955 166.217 102.074 166.259C102.262 166.326 102.605 166.467 102.235 166.316C104.242 167.172 106.137 168.227 107.885 169.461C107.936 169.495 108.38 169.8 108.14 169.635C107.92 169.483 108.291 169.742 108.295 169.742C108.407 169.786 108.723 170.329 108.114 169.528C108.162 169.592 108.3 169.849 108.095 169.466C107.889 169.084 108.043 169.374 108.065 169.498C108.112 169.766 108.034 169.171 108.024 169.186C107.991 169.399 107.991 169.616 108.024 169.829C108.024 170.214 107.914 169.692 108.059 169.641C108.034 169.722 108.016 169.805 108.005 169.889C107.948 170.076 107.907 170.265 107.841 170.451C107.814 170.527 107.774 170.604 107.753 170.68C107.669 171.002 108.037 170.234 107.842 170.495C107.758 170.608 107.401 171.118 107.716 170.775C108.003 170.463 107.813 170.667 107.745 170.726C107.417 171.029 107.906 170.578 107.946 170.592C107.87 170.623 107.798 170.659 107.728 170.7C107.417 170.853 108.291 170.572 107.933 170.621C107.733 170.649 107.517 170.722 107.321 170.764C107.237 170.782 106.904 170.835 107.332 170.764C107.808 170.687 107.233 170.754 107.157 170.755C106.947 170.755 106.725 170.724 106.519 170.739C106.23 170.761 106.82 170.776 106.844 170.786C106.738 170.759 106.629 170.741 106.519 170.732C106.169 170.649 105.825 170.544 105.49 170.42C104.157 169.949 102.764 169.632 101.344 169.477C99.7924 169.372 98.2463 169.738 96.9523 170.517C96.2988 170.862 95.8238 171.426 95.6317 172.086C95.4396 172.747 95.5462 173.449 95.928 174.038C96.3099 174.627 96.9357 175.056 97.6678 175.229C98.3999 175.402 99.1783 175.306 99.8318 174.962C99.9602 174.89 100.095 174.824 100.222 174.747C100.677 174.488 100.231 174.701 100.159 174.747C100.42 174.655 100.69 174.583 100.965 174.533C100.996 174.626 100.225 174.492 100.727 174.581C100.877 174.607 101.068 174.601 101.217 174.613C101.098 174.604 100.657 174.512 101.191 174.622C101.389 174.662 101.59 174.698 101.785 174.743C102.833 174.979 103.806 175.412 104.842 175.663C107.507 176.306 110.874 175.77 112.461 173.574C113.805 171.716 114.316 168.77 112.956 166.819C112.382 166.132 111.674 165.546 110.866 165.089C110.289 164.695 109.705 164.309 109.11 163.938C108.106 163.305 107.055 162.735 105.963 162.233C102.824 160.899 99.4531 160.064 95.9988 159.767C95.242 159.767 94.5163 160.038 93.9812 160.521C93.4461 161.003 93.1454 161.658 93.1454 162.341C93.1673 163.017 93.4749 163.66 94.0053 164.138C94.5358 164.617 95.2489 164.894 95.9988 164.914L96.0107 164.919Z" fill="#211715"/>
<path d="M99.1089 171.992C98.247 175.989 97.4825 180.798 93.9884 183.723C91.9149 185.461 88.7371 185.344 86.6494 187.029C84.6081 188.679 83.651 191.426 82.8092 193.693L84.117 192.155L83.9981 192.208L86.1964 191.949C82.2992 190.792 78.4104 189.614 74.5203 188.439C72.6125 187.863 70.704 187.29 68.7946 186.719C67.8435 186.433 66.8881 186.149 65.9282 185.867C65.1166 185.7 64.3241 185.464 63.5611 185.164L64.5848 186.087L64.5753 186.147V187.515C64.8713 185.596 66.1291 183.609 66.8496 181.776C67.4964 180.133 67.9113 178.391 68.3726 176.698C69.5615 172.357 70.0941 167.905 70.83 163.492C72.0189 156.396 73.7333 149.438 78.6517 143.609C79.0291 143.018 79.1334 142.318 78.9417 141.659C78.7501 140.999 78.2781 140.435 77.6281 140.088C76.9706 139.76 76.1983 139.673 75.4716 139.844C74.7448 140.016 74.1194 140.434 73.725 141.011C69.4628 146.062 67.2419 152.141 66.0091 158.333C64.7013 164.891 63.9713 171.474 62.1273 177.942C61.7188 179.36 61.2242 180.756 60.646 182.124C59.9826 183.71 58.6177 185.796 59.0731 187.518C59.6806 189.815 62.2724 190.199 64.4112 190.834C66.5227 191.457 68.6317 192.087 70.7385 192.723C74.9875 194.001 79.2331 195.296 83.4869 196.56C84.0184 196.806 84.6048 196.94 85.2021 196.952C85.7993 196.964 86.3917 196.854 86.9347 196.629C88.1046 196.02 88.3614 194.866 88.7917 193.809C89.0579 193.143 89.3757 192.494 89.7428 191.867C89.9295 191.463 90.2096 191.1 90.5644 190.802C91.7031 190.354 92.8698 189.967 94.0585 189.641C95.148 189.242 96.1716 188.71 97.1009 188.06C98.82 186.802 100.219 185.225 101.201 183.436C102.872 180.245 104.019 176.852 104.609 173.363C104.79 172.705 104.685 172.01 104.314 171.421C103.943 170.832 103.335 170.393 102.616 170.197C101.887 170.022 101.11 170.112 100.454 170.448C99.7971 170.785 99.3134 171.34 99.1065 171.995L99.1089 171.992Z" fill="#211715"/>
<path d="M95.1868 145.266C95.5244 144.982 95.8573 144.694 96.1973 144.409C96.3043 144.32 97.1865 143.666 96.6324 144.03C96.8744 143.875 97.1252 143.732 97.3838 143.601C97.8142 143.374 97.4682 143.544 97.3577 143.587C97.6169 143.493 97.8816 143.411 98.1507 143.342C100.759 142.706 103.429 142.297 106.125 142.121C108.58 141.894 111.427 141.976 113.651 140.9C114.905 140.313 115.934 139.398 116.604 138.276C117.274 137.154 117.554 135.876 117.408 134.609C117.242 133.349 116.677 132.159 115.781 131.181C114.885 130.203 113.696 129.479 112.355 129.094C110.098 128.615 107.775 128.438 105.46 128.57C99.651 128.497 93.2453 128.636 87.7075 130.334C81.6025 132.206 77.4901 136.477 73.7237 141.01C73.3466 141.6 73.2426 142.301 73.4342 142.96C73.6258 143.619 74.0976 144.183 74.7474 144.531C75.4047 144.859 76.1772 144.947 76.9041 144.775C77.631 144.603 78.2565 144.185 78.6505 143.608C81.1472 140.597 84.1134 137.232 88.0308 135.702C92.5213 133.948 97.8368 133.82 102.66 133.726C104.715 133.685 106.77 133.726 108.821 133.82C109.994 133.877 111.331 133.751 111.71 134.94C112.112 136.196 110.585 136.541 109.596 136.655C107.172 136.935 104.735 137.084 102.312 137.39C99.9017 137.592 97.5319 138.08 95.264 138.843C93.7209 139.547 92.3272 140.491 91.1469 141.631C88.4588 143.897 92.4999 147.528 95.182 145.27L95.1868 145.266Z" fill="#211715"/>
</svg>
